<?xml version="1.0" standalone="no"?>
<!DOCTYPE svg PUBLIC "-//W3C//DTD SVG 20010904//EN"
 "http://www.w3.org/TR/2001/REC-SVG-20010904/DTD/svg10.dtd">
<svg version="1.0" xmlns="http://www.w3.org/2000/svg"
 width="900.000000pt" height="900.000000pt" viewBox="0 0 900.000000 900.000000"
 preserveAspectRatio="xMidYMid meet">
<metadata>
Created by potrace 1.10, written by Peter Selinger 2001-2011
</metadata>
<g transform="translate(0.000000,900.000000) scale(0.100000,-0.100000)"
fill="#ff2600" stroke="none">
<path d="M4098 8433 c-11 -10 -41 -17 -93 -19 -42 -3 -85 -9 -95 -14 -10 -6
-28 -10 -39 -10 -25 0 -41 -28 -41 -75 0 -29 -8 -43 -45 -79 -31 -30 -44 -48
-39 -60 3 -9 -1 -27 -9 -40 -9 -13 -17 -51 -19 -87 -3 -60 -2 -64 20 -67 34
-5 37 -28 9 -65 -13 -18 -28 -47 -31 -65 -7 -31 -6 -32 23 -32 38 0 39 -10 5
-47 -26 -28 -29 -66 -9 -115 5 -12 -4 -28 -29 -53 -42 -41 -43 -52 -16 -105
28 -55 25 -82 -14 -129 -22 -26 -32 -48 -29 -60 3 -12 -6 -33 -22 -55 -24 -32
-26 -41 -23 -108 2 -40 6 -79 8 -87 8 -25 -25 -23 -56 4 -16 14 -30 29 -30 35
-1 5 -2 14 -3 19 0 5 -10 11 -21 14 -11 3 -24 17 -30 32 -10 26 -11 27 -33 11
-35 -26 -48 -29 -60 -17 -9 10 -8 15 6 25 12 10 15 21 11 43 -5 25 -2 31 15
36 45 11 5 67 -49 67 -14 0 -36 3 -48 7 -21 5 -23 10 -17 42 9 46 29 69 74 81
47 12 76 34 67 49 -5 8 -13 8 -27 1 -21 -12 -39 -6 -39 13 0 7 14 25 30 40 17
16 30 32 30 36 0 17 -40 43 -62 41 -38 -3 -48 -1 -48 13 0 28 28 51 61 52 28
0 34 5 41 30 4 16 16 36 26 45 34 27 82 98 82 118 0 12 -5 24 -11 28 -7 4 -62
8 -123 9 -99 2 -111 4 -111 20 0 27 31 43 55 27 27 -17 65 -15 85 4 33 34 -5
93 -42 66 -33 -23 -45 -25 -60 -9 -14 14 -23 11 -89 -30 -41 -24 -74 -48 -74
-51 0 -4 5 -14 10 -22 10 -16 -23 -60 -46 -60 -19 0 -28 -20 -15 -33 19 -19
12 -30 -16 -24 -33 7 -142 -29 -161 -52 -7 -9 -11 -25 -8 -36 7 -28 -3 -39
-53 -55 -23 -8 -50 -25 -59 -38 -9 -13 -28 -37 -44 -52 -15 -16 -28 -35 -28
-44 0 -22 -57 -50 -114 -56 -63 -6 -83 -32 -46 -59 21 -16 22 -21 11 -35 -8
-9 -32 -21 -55 -27 -27 -7 -45 -18 -51 -32 -6 -13 -21 -23 -37 -25 -42 -5 -53
-26 -34 -66 22 -46 21 -49 -12 -43 -30 6 -65 -15 -75 -46 -4 -9 -18 -22 -32
-27 -17 -6 -25 -17 -25 -33 0 -13 -7 -32 -15 -43 -9 -12 -14 -42 -15 -80 0
-42 -5 -65 -15 -74 -8 -7 -15 -26 -15 -43 0 -17 -8 -39 -17 -49 -13 -15 -15
-23 -6 -37 7 -12 8 -23 1 -35 -7 -12 -7 -21 1 -29 8 -8 23 1 56 33 38 37 46
41 60 30 14 -11 17 -10 22 9 9 34 28 19 31 -25 2 -33 -2 -44 -28 -69 -16 -16
-30 -35 -30 -42 0 -15 -16 -17 -25 -3 -9 15 -41 12 -54 -4 -7 -9 -9 -29 -5
-55 6 -36 10 -41 33 -41 54 0 57 -15 12 -60 -43 -44 -73 -49 -79 -15 -6 34
-18 37 -55 15 -38 -22 -54 -51 -40 -72 4 -7 6 -20 5 -30 -5 -29 18 -31 43 -4
30 32 47 34 40 3 -5 -17 2 -31 24 -55 36 -37 38 -48 13 -56 -10 -4 -32 -25
-48 -47 -16 -23 -45 -57 -64 -75 -32 -30 -33 -35 -21 -58 17 -31 8 -61 -17
-51 -39 17 -62 17 -62 2 0 -8 7 -20 15 -27 24 -20 15 -55 -15 -56 -17 0 -24
-5 -21 -15 13 -45 8 -74 -15 -96 -16 -15 -24 -33 -24 -56 0 -19 -7 -40 -14
-47 -8 -6 -20 -28 -27 -48 -6 -20 -28 -53 -49 -72 -27 -27 -40 -49 -50 -93 -9
-40 -20 -62 -34 -69 -53 -28 -76 -69 -97 -173 -6 -33 -27 -87 -45 -120 -23
-43 -31 -68 -27 -88 3 -16 1 -38 -4 -50 -9 -19 -29 -126 -63 -328 -5 -31 -14
-68 -19 -83 -17 -43 -51 -498 -51 -671 1 -151 2 -165 30 -245 17 -47 30 -92
30 -100 0 -15 85 -100 101 -100 12 0 12 -27 0 -35 -10 -6 -1 -46 18 -83 6 -12
16 -32 23 -44 6 -13 23 -45 36 -73 39 -77 77 -133 106 -156 14 -11 26 -26 26
-33 0 -20 37 -49 54 -43 10 4 13 1 10 -7 -5 -13 35 -46 56 -46 6 0 15 12 20
26 8 21 13 24 25 14 15 -13 35 -6 35 13 0 6 -14 23 -31 38 l-31 26 32 6 c31 7
32 8 25 47 -5 31 -4 40 8 40 11 0 15 -23 20 -105 4 -65 13 -118 23 -136 13
-26 19 -29 45 -24 16 4 29 3 29 -2 0 -11 28 -49 53 -71 12 -12 17 -32 17 -77
0 -61 6 -88 35 -185 9 -30 20 -82 25 -115 12 -88 38 -179 76 -260 7 -16 16
-42 20 -58 3 -15 10 -29 14 -32 5 -3 6 -22 3 -43 -4 -30 4 -55 41 -130 25 -50
46 -97 46 -103 0 -6 16 -42 35 -81 47 -93 94 -132 109 -92 8 20 -1 34 -20 34
-11 0 -14 9 -12 32 4 41 33 50 42 13 l6 -25 30 22 c37 27 24 53 -22 43 -29 -7
-29 -7 -22 32 3 21 11 44 17 51 11 13 -9 62 -25 62 -4 0 -8 9 -8 20 0 33 28
22 49 -18 9 -17 19 -22 39 -20 42 5 40 34 -2 42 -30 6 -36 11 -36 32 0 13 -7
27 -15 30 -11 4 -13 16 -9 47 5 38 3 44 -25 62 -39 25 -39 35 -1 35 18 0 33 6
36 15 10 26 -16 73 -47 85 l-29 13 25 23 c15 13 33 24 41 24 7 0 14 7 14 15 0
12 -4 13 -18 6 -21 -11 -52 8 -52 32 0 22 30 26 64 9 22 -11 34 -11 53 -3 27
12 22 31 -8 31 -11 0 -29 5 -40 10 -13 7 -25 7 -38 1 -21 -12 -35 -3 -22 13 4
6 11 35 14 63 5 45 3 54 -12 63 -10 5 -21 21 -25 34 -3 14 -15 28 -26 31 -25
8 -25 30 -1 76 22 42 19 146 -6 164 -13 10 -13 13 1 24 21 17 11 31 -22 31
-58 0 -68 34 -12 42 28 3 35 35 17 76 -13 28 2 41 39 34 14 -2 24 0 24 7 0 6
9 11 20 11 16 0 20 -7 20 -35 0 -39 -7 -43 -26 -17 -18 24 -37 3 -28 -32 5
-20 12 -26 34 -26 16 0 32 5 36 11 3 6 19 9 33 6 25 -5 27 -4 23 23 -2 17 -1
37 2 46 6 15 9 15 33 -1 26 -18 27 -17 48 9 11 14 26 26 33 26 17 0 15 29 -3
36 -16 7 -12 13 45 71 33 34 35 35 38 14 2 -12 -1 -27 -6 -34 -5 -7 -13 -27
-17 -44 -6 -29 -4 -33 15 -33 21 0 22 3 16 40 -5 35 -4 40 13 40 11 0 24 -8
30 -17 9 -17 11 -17 26 2 15 20 16 19 13 -5 -3 -24 -1 -25 56 -26 45 0 63 4
76 19 15 16 18 16 23 3 8 -20 47 -21 47 -1 0 9 10 15 26 15 23 0 25 -3 20 -27
-5 -21 -4 -24 3 -13 9 13 12 12 24 -3 12 -17 14 -17 26 -3 10 12 11 19 2 30
-16 20 27 29 95 20 41 -5 54 -10 54 -23 0 -29 17 -44 57 -48 27 -2 44 1 52 11
10 12 17 13 38 3 19 -8 29 -8 45 2 30 19 129 16 140 -3 13 -23 33 -20 46 7
l11 22 0 -23 c1 -15 8 -26 22 -29 16 -5 19 -11 14 -35 -5 -21 -2 -35 10 -48
14 -16 15 -23 6 -34 -15 -17 -7 -36 15 -36 8 0 20 -13 25 -30 6 -16 14 -30 19
-30 16 0 19 -45 5 -74 -18 -35 -19 -64 -4 -103 8 -23 8 -26 -2 -15 -7 6 -22
12 -34 12 -16 0 -23 -10 -33 -46 -12 -44 -46 -102 -69 -117 -13 -8 -28 -63
-24 -94 2 -23 -14 -39 -24 -23 -11 17 -25 0 -25 -30 0 -15 -5 -30 -11 -32 -19
-6 8 -47 36 -54 24 -6 25 -9 19 -55 -6 -48 -6 -49 20 -49 14 0 35 -6 47 -13
17 -10 22 -9 30 5 14 24 41 23 57 -3 11 -17 11 -27 2 -50 -10 -23 -9 -35 6
-68 11 -22 26 -41 34 -42 8 -1 20 -2 25 -4 6 -1 14 -3 18 -3 18 -4 -16 -42
-36 -42 -47 0 -66 -49 -19 -50 95 -4 121 -1 144 14 19 12 32 14 50 7 13 -5 45
-7 70 -4 26 3 55 0 68 -7 13 -7 89 -16 169 -20 80 -5 177 -14 215 -20 58 -9
76 -9 120 5 99 32 131 43 178 61 43 16 54 17 130 4 46 -7 99 -18 118 -25 20
-7 73 -16 118 -20 45 -4 85 -11 88 -16 3 -5 15 -9 27 -9 12 0 40 -9 61 -21 45
-24 56 -18 36 19 -11 19 -32 33 -75 47 -53 17 -130 57 -145 75 -5 5 -36 19
-140 62 -25 10 -53 23 -62 28 -10 6 -26 10 -37 10 -10 0 -24 7 -31 15 -9 11
-34 15 -96 15 -76 0 -91 -3 -159 -36 -54 -26 -89 -36 -123 -36 -47 0 -222 52
-248 73 -16 13 -19 65 -5 73 13 8 20 78 9 98 -5 10 -18 18 -28 18 -17 0 -20 7
-20 41 0 36 2 40 15 29 34 -29 25 14 -14 62 -12 15 -12 20 0 34 8 10 15 38 16
63 2 25 4 68 5 94 2 26 8 51 13 55 15 10 47 63 42 68 -7 7 -77 -66 -77 -82 0
-27 -40 -94 -78 -132 -71 -70 -89 -125 -60 -187 9 -21 9 -31 -1 -47 -7 -11
-11 -21 -9 -22 2 -1 19 -10 39 -19 35 -16 74 -59 63 -70 -3 -3 -17 1 -32 9
-38 20 -60 17 -73 -9 -22 -42 -49 -65 -71 -59 -19 5 -20 2 -14 -31 6 -32 4
-37 -12 -37 -11 0 -25 7 -32 15 -7 8 -21 15 -31 15 -26 0 -24 19 3 29 22 8 22
8 -5 25 -14 10 -29 26 -32 37 -9 27 -25 23 -25 -6 0 -20 -5 -25 -24 -25 -22 0
-26 7 -36 54 -6 30 -18 60 -26 67 -11 9 -11 15 -3 25 8 10 7 18 -6 30 -9 9
-15 26 -13 38 3 18 10 21 47 21 36 0 46 4 54 23 6 14 19 22 34 22 12 0 23 4
23 9 0 4 -17 8 -37 7 -34 -1 -38 2 -41 25 -2 14 4 31 12 39 28 22 19 59 -19
81 -37 22 -43 34 -21 42 7 3 17 18 20 34 4 15 17 38 28 50 12 13 18 29 14 38
-9 23 11 55 35 55 11 0 22 7 25 15 3 8 30 26 60 40 39 18 54 31 54 46 0 12 10
23 25 29 14 5 25 15 25 22 0 16 50 43 106 58 23 5 47 17 54 25 9 11 17 12 31
5 15 -9 20 -6 25 16 4 15 2 35 -4 45 -6 9 -14 41 -18 71 -3 29 -13 64 -21 77
-11 17 -12 29 -5 45 6 11 13 37 16 56 3 19 10 60 15 91 5 31 7 82 5 113 -2 32
1 76 6 97 6 22 8 45 4 51 -4 7 -9 46 -11 87 -2 42 -8 80 -12 86 -5 5 -11 31
-14 56 -4 25 -14 60 -24 77 -15 26 -16 36 -6 64 17 48 4 102 -26 106 -13 2
-26 12 -28 23 -7 25 -23 24 -23 -1 0 -11 -7 -23 -15 -26 -8 -4 -15 -15 -15
-25 0 -23 -18 -25 -27 -3 -4 10 0 20 10 26 20 11 23 38 4 38 -7 0 -18 -5 -25
-12 -9 -9 -12 -9 -12 0 0 7 -11 12 -25 12 -14 0 -25 -4 -25 -10 0 -5 -9 -1
-20 10 -11 11 -20 24 -20 29 0 15 -67 61 -89 61 -25 0 -37 18 -17 26 9 3 16
10 16 15 0 13 -37 11 -46 -2 -9 -16 -89 -2 -116 21 -13 10 -39 33 -59 49 -20
17 -47 31 -59 31 -22 0 -23 -1 -5 -20 10 -11 22 -20 26 -20 4 0 23 -13 41 -30
18 -17 37 -30 42 -30 5 0 19 -12 32 -26 17 -17 30 -23 44 -19 26 8 56 -9 72
-43 9 -19 22 -28 43 -30 73 -6 76 -9 73 -55 -3 -36 -6 -41 -23 -39 -67 12 -79
8 -100 -32 -26 -51 -54 -71 -140 -101 -65 -23 -135 -33 -135 -19 0 3 5 15 12
27 6 12 14 69 17 127 l6 105 34 3 c24 3 39 -2 53 -17 15 -17 23 -19 39 -10 21
11 21 11 -2 35 -12 13 -31 24 -41 24 -10 0 -23 11 -28 24 -14 37 -53 59 -91
51 -17 -4 -41 -2 -53 3 -11 6 -43 18 -71 28 -27 10 -55 21 -61 26 -20 15 -136
48 -170 48 -18 0 -51 9 -73 21 -45 23 -60 19 -104 -31 -23 -25 -35 -31 -55
-27 -15 3 -34 0 -42 -7 -8 -7 -44 -21 -80 -30 -36 -10 -83 -24 -105 -32 -23
-8 -49 -14 -59 -14 -9 0 -24 -7 -33 -16 -9 -8 -21 -13 -29 -10 -17 6 -84 -13
-84 -24 0 -12 -70 -60 -87 -60 -16 0 -18 66 -2 76 7 4 16 -1 21 -10 5 -9 16
-16 23 -16 22 0 18 31 -5 37 -23 6 -28 47 -7 60 18 11 28 54 17 72 -6 11 -12
12 -22 4 -7 -6 -28 -14 -45 -18 -32 -6 -48 -20 -48 -40 0 -5 -12 -11 -28 -13
-27 -3 -27 -5 -26 -58 2 -61 -11 -85 -36 -64 -10 8 -19 9 -27 3 -7 -5 -31 -9
-53 -9 -36 1 -40 4 -43 28 -3 21 1 27 19 30 28 4 38 28 11 28 -27 0 -33 31
-16 87 20 66 19 75 -11 67 -14 -3 -25 -2 -25 4 0 12 72 62 89 62 8 0 10 7 6
19 -4 14 3 24 30 41 38 23 38 40 1 40 -38 0 -86 12 -86 21 0 5 9 9 21 9 11 0
33 14 49 32 26 29 32 30 55 20 34 -16 32 -17 39 19 9 44 39 36 47 -14 5 -32 3
-40 -15 -49 -28 -15 -56 -51 -47 -61 4 -4 29 -2 57 4 27 5 61 13 76 16 23 4
26 8 17 24 -12 23 -39 25 -39 3 0 -8 -5 -12 -11 -8 -7 4 -6 11 4 22 15 14 45
18 187 25 30 2 61 6 68 11 7 4 26 5 43 1 17 -4 35 -2 43 4 14 12 36 13 193 12
67 0 99 -4 117 -16 15 -10 53 -17 102 -20 85 -3 130 -14 166 -39 12 -9 37 -16
56 -16 28 0 75 -20 92 -40 3 -3 32 -14 66 -24 48 -14 66 -16 83 -7 12 7 36 9
55 6 23 -5 48 -1 77 12 51 23 65 37 75 78 6 27 5 29 -8 17 -13 -11 -25 -10
-67 4 -82 27 -131 88 -81 101 30 8 21 35 -15 46 -16 5 -44 15 -62 23 -17 8
-34 14 -38 14 -3 0 -27 16 -52 35 -26 20 -57 35 -73 35 -15 0 -38 9 -52 19
-13 11 -53 27 -89 36 -35 9 -71 23 -80 31 -8 8 -24 14 -34 14 -28 0 -148 31
-161 41 -6 5 -31 9 -55 8 -24 -1 -71 4 -104 10 -33 7 -98 16 -145 21 -76 7
-90 6 -130 -12 -41 -19 -99 -26 -119 -14 -17 11 -135 -36 -189 -76 -115 -84
-171 -139 -185 -181 -22 -66 -64 -76 -89 -22 -15 33 14 119 50 150 21 18 23
25 13 42 -11 21 -6 53 8 53 13 0 41 70 41 101 0 21 9 40 28 58 50 49 63 69 67
101 2 18 10 39 17 48 8 9 12 34 10 62 -3 41 0 52 27 83 17 19 31 40 31 45 0
46 191 322 223 322 7 0 20 20 30 44 16 39 48 66 77 66 6 0 10 -17 10 -37 0
-43 -34 -83 -69 -83 -22 0 -23 -4 -25 -135 -1 -16 -5 -37 -11 -45 -5 -8 -14
-24 -20 -34 -5 -10 -20 -23 -33 -27 -20 -8 -25 -4 -38 24 l-15 32 7 -30 c3
-16 7 -46 9 -65 2 -28 7 -36 25 -38 27 -4 71 -31 83 -49 5 -8 13 -11 18 -7 5
3 16 0 24 -6 17 -14 2 -52 -18 -48 -7 1 -24 -9 -38 -23 -14 -14 -32 -28 -40
-31 -21 -8 2 -29 43 -37 41 -8 50 -41 17 -65 -33 -23 -16 -31 28 -13 32 13 38
19 35 41 -2 22 1 26 22 26 18 0 25 -6 28 -22 2 -19 10 -23 43 -26 22 -1 50 -8
63 -14 17 -9 25 -9 34 0 9 9 16 8 30 -5 12 -11 36 -17 68 -17 31 0 51 -5 54
-13 3 -7 14 -13 25 -13 11 0 43 -22 71 -49 45 -43 56 -49 83 -44 28 4 34 0 50
-26 18 -31 40 -38 66 -22 9 6 23 5 37 -1 29 -14 80 6 87 33 3 10 12 19 21 19
9 0 16 7 16 15 0 20 -27 19 -38 -2 -12 -20 -42 -11 -42 13 0 9 9 18 20 21 11
3 20 9 20 14 0 17 -29 22 -68 12 -51 -13 -86 0 -79 28 11 43 -21 68 -41 32 -8
-13 -11 -8 -17 24 -4 29 -12 43 -27 46 -21 6 -21 28 1 35 7 2 15 -5 18 -17 3
-12 11 -21 18 -21 7 0 15 -9 18 -21 7 -25 27 -16 27 12 0 11 10 23 24 29 14 5
30 19 37 32 15 28 20 106 7 114 -16 10 -38 -17 -38 -46 0 -15 -6 -30 -14 -33
-9 -4 -14 -18 -14 -37 1 -36 -9 -50 -22 -30 -15 23 -12 60 5 66 22 9 18 58 -5
79 -16 14 -23 16 -32 7 -14 -14 -58 -16 -58 -3 0 5 8 12 18 15 28 10 55 29 84
59 15 15 32 27 38 27 5 0 10 7 10 15 0 8 -8 15 -18 15 -28 0 -49 22 -55 57 -7
38 12 63 49 63 29 0 30 9 4 38 -16 16 -32 22 -67 22 l-45 0 6 32 c8 40 8 41
41 28 34 -13 43 -6 27 20 -19 31 -14 40 23 40 28 0 35 4 35 20 0 16 -7 20 -35
20 -40 0 -44 8 -15 33 22 18 28 59 8 52 -15 -5 -47 21 -64 50 -6 11 -20 22
-30 24 -26 4 -44 20 -44 38 0 11 7 13 26 9 38 -10 76 17 68 48 -5 22 -2 24 43
31 52 7 83 28 83 55 0 25 23 41 69 47 35 5 42 10 51 38 6 18 33 57 60 86 l49
53 -5 61 c-3 33 -10 70 -16 82 -6 12 -8 28 -5 36 6 17 85 57 110 57 10 0 22
11 27 25 12 31 14 31 40 3 17 -19 24 -21 40 -10 39 24 77 15 105 -25 14 -21
25 -47 25 -60 0 -55 17 -64 76 -36 35 17 36 17 54 -5 14 -17 25 -21 49 -16 18
4 31 2 31 -3 0 -18 111 -83 141 -83 17 0 32 -6 35 -15 8 -20 33 -19 56 2 17
15 19 14 43 -11 14 -15 25 -33 25 -40 0 -16 22 -26 55 -26 13 0 28 -7 33 -16
6 -11 28 -16 81 -18 39 -1 74 1 77 6 3 4 28 8 56 8 33 0 71 9 109 26 56 26 60
26 85 9 20 -13 54 -17 157 -20 101 -2 140 -6 164 -19 19 -10 42 -15 53 -11 15
5 26 -1 42 -20 16 -20 26 -25 45 -20 14 3 30 2 36 -3 7 -5 36 -17 66 -26 86
-27 232 -117 285 -175 40 -43 78 -81 159 -160 l66 -63 31 22 c16 12 30 28 30
36 0 8 5 14 10 14 6 0 10 -11 10 -25 0 -14 5 -25 11 -25 7 0 8 -11 4 -30 -4
-19 -3 -30 4 -30 6 0 11 5 11 10 0 6 7 10 15 10 8 0 15 -4 15 -10 0 -5 -6 -10
-14 -10 -20 0 -27 -39 -11 -64 8 -11 29 -29 47 -39 18 -10 43 -35 56 -57 18
-32 28 -40 50 -40 31 0 70 -35 96 -88 9 -18 28 -37 41 -42 16 -6 25 -17 25
-30 0 -12 13 -32 29 -45 38 -33 137 -181 156 -235 8 -23 15 -54 15 -69 0 -14
12 -48 25 -76 14 -27 25 -55 25 -62 0 -7 13 -28 30 -46 32 -37 69 -111 70
-139 0 -9 11 -30 25 -46 25 -30 33 -62 15 -62 -18 0 -10 -16 30 -60 22 -24 40
-51 40 -60 0 -9 18 -33 40 -53 30 -27 40 -43 40 -66 0 -17 5 -51 12 -75 9 -35
9 -51 0 -71 -10 -21 -10 -31 -1 -41 29 -35 112 -52 146 -31 16 10 59 -8 67
-28 12 -32 23 -5 15 37 -8 46 -5 54 26 60 15 2 20 13 22 51 3 43 0 52 -27 77
-37 34 -38 46 -5 54 17 4 25 13 25 28 0 29 42 65 91 78 52 14 49 39 -6 59 -22
8 -43 19 -47 25 -11 16 3 28 18 15 32 -26 72 49 42 79 -9 9 -9 17 2 36 16 30
7 58 -16 49 -15 -5 -16 1 -8 68 12 117 8 492 -7 549 -9 35 -10 59 -2 82 8 27
6 45 -9 88 -11 30 -23 69 -27 85 -4 17 -11 40 -15 52 -5 16 1 30 24 56 l30 34
-22 28 c-12 16 -20 40 -20 58 1 18 -2 41 -7 52 -4 11 -15 36 -24 57 -9 20 -21
94 -28 165 -13 143 -28 193 -57 193 -11 0 -25 6 -32 14 -6 8 -21 16 -33 18
-13 2 -23 11 -25 23 -6 41 -34 122 -61 180 -16 33 -32 84 -36 114 -5 38 -14
61 -32 77 -14 13 -20 25 -13 29 20 12 10 34 -22 50 -42 19 -118 86 -118 103 0
20 -42 72 -52 65 -10 -6 -88 70 -88 86 0 19 -80 109 -117 132 -21 13 -48 35
-60 49 -21 24 -22 24 -23 4 0 -11 11 -30 25 -42 18 -15 25 -32 25 -56 0 -30 6
-38 55 -71 37 -24 62 -50 75 -77 23 -48 26 -88 6 -88 -15 0 -26 10 -166 159
-57 61 -109 111 -115 111 -5 0 -33 20 -60 44 -48 43 -93 68 -78 43 41 -68 65
-101 87 -118 27 -21 34 -53 15 -65 -6 -3 -23 5 -37 19 -30 27 -91 61 -98 54
-9 -9 43 -74 101 -127 33 -29 64 -61 69 -69 5 -9 21 -26 35 -38 19 -15 23 -25
15 -33 -14 -14 -42 -3 -49 21 -4 10 -12 19 -19 19 -6 0 -23 13 -36 30 -14 16
-31 29 -37 30 -7 0 -13 7 -13 15 0 11 -7 14 -25 9 -22 -5 -26 -2 -31 25 -7 31
-7 31 -21 10 -11 -15 -18 -18 -26 -10 -11 11 -57 15 -57 5 0 -10 44 -43 58
-44 7 0 15 -7 18 -15 4 -8 11 -15 18 -15 13 0 46 -35 46 -50 0 -6 -4 -10 -10
-10 -11 0 -40 -52 -40 -72 0 -20 73 -117 88 -118 14 0 17 -20 2 -20 -14 0 -13
-37 2 -46 6 -4 17 0 23 10 11 14 14 14 24 2 10 -11 9 -16 -4 -23 -15 -9 -14
-13 5 -45 18 -31 18 -36 5 -41 -9 -4 -21 3 -31 18 -9 14 -25 25 -35 25 -11 0
-29 16 -43 39 -42 66 -168 159 -184 135 -4 -6 -16 -14 -27 -18 -20 -7 -20 -7
0 -21 11 -8 43 -34 72 -57 58 -48 68 -78 27 -78 -21 0 -25 -4 -22 -22 2 -15
11 -24 25 -26 16 -2 29 -17 42 -47 13 -29 37 -56 75 -84 31 -23 56 -46 56 -51
0 -21 -44 -8 -84 25 -24 19 -46 35 -50 35 -10 0 -108 74 -125 93 -15 19 -46
22 -56 7 -3 -5 -15 -10 -26 -10 -10 0 -19 -7 -19 -15 0 -8 4 -15 8 -15 15 0
82 -70 82 -85 0 -9 -10 -15 -25 -15 -39 0 -32 -20 22 -57 18 -13 36 -23 41
-23 5 0 15 -7 22 -15 7 -8 24 -15 39 -15 14 0 35 -7 45 -15 17 -13 22 -13 37
1 28 25 61 13 92 -33 18 -27 36 -43 48 -43 20 0 98 -77 130 -129 9 -14 32 -40
50 -57 47 -42 119 -130 119 -144 0 -7 11 -21 24 -31 14 -11 34 -34 45 -53 12
-19 35 -39 51 -46 17 -7 35 -21 41 -31 5 -11 17 -19 25 -19 22 0 13 -34 -11
-39 -11 -2 -25 -11 -32 -20 -10 -14 -20 -8 -77 53 -37 39 -66 73 -66 77 0 4
-25 33 -55 64 -30 32 -55 63 -55 71 0 7 -11 21 -25 30 -14 9 -25 20 -25 24 0
18 -74 120 -87 120 -7 0 -22 14 -32 31 -24 38 -46 54 -97 68 -23 6 -54 23 -69
37 -16 14 -47 34 -71 44 -23 10 -45 23 -48 29 -4 6 -22 11 -41 11 -20 0 -35 6
-39 15 -3 8 -10 15 -16 15 -5 0 -10 -7 -10 -15 0 -8 5 -15 10 -15 6 0 23 -12
39 -27 26 -27 53 -47 78 -59 25 -12 143 -136 143 -149 0 -27 -16 -16 -86 56
-104 108 -117 119 -138 119 -10 0 -41 23 -68 51 -35 37 -52 49 -60 41 -11 -11
-12 -11 105 -134 31 -34 57 -64 57 -68 0 -4 8 -10 18 -12 13 -4 21 -18 25 -44
8 -47 -6 -65 -30 -41 -12 12 -14 20 -6 28 15 15 -6 55 -34 68 -13 6 -23 15
-23 21 0 5 -7 10 -15 10 -9 0 -25 16 -36 35 -23 39 -39 45 -39 16 0 -10 11
-26 25 -35 14 -9 25 -24 25 -33 0 -9 8 -22 17 -29 10 -7 15 -16 10 -20 -4 -4
-13 -2 -19 4 -7 7 -20 12 -29 12 -19 0 -18 -1 54 -83 30 -35 32 -60 3 -65 -18
-4 -70 47 -81 80 -3 9 -28 31 -55 48 -26 17 -51 38 -54 46 -3 8 -17 19 -31 26
-14 6 -25 16 -25 23 0 21 -55 64 -80 63 -56 -4 -79 4 -145 47 -78 51 -126 67
-241 85 -44 7 -82 16 -87 20 -4 3 15 17 42 31 28 13 50 27 51 31 0 15 -51 40
-117 57 -38 10 -78 23 -90 30 -13 6 -44 16 -70 21 -93 19 -145 36 -154 51 -16
25 -10 58 14 70 22 12 37 28 37 41 0 3 -16 12 -35 18 -19 6 -53 29 -76 51 -22
21 -48 39 -57 39 -8 0 -45 12 -81 26 -96 38 -121 65 -86 94 8 7 15 24 15 38 0
14 7 33 16 43 18 20 11 39 -15 39 -10 0 -32 7 -49 16 -17 8 -63 19 -102 23
-58 6 -75 12 -100 36 -16 16 -30 32 -30 37 0 4 20 8 44 8 33 0 52 6 73 24 26
23 27 25 8 31 -11 4 -37 14 -57 22 -26 11 -52 14 -84 9 -41 -5 -48 -3 -75 23
-16 16 -29 36 -29 43 0 8 -5 19 -11 25 -6 6 -8 16 -5 22 10 16 40 13 75 -6 29
-17 30 -17 53 4 22 21 28 21 127 13 111 -10 151 -6 151 15 0 23 -26 35 -61 29
-28 -6 -32 -4 -21 7 20 22 14 34 -29 58 -44 25 -87 31 -254 35 -131 3 -135 4
-135 20 0 7 18 32 40 55 48 50 51 65 10 56 -23 -5 -32 -3 -36 10 -8 20 62 88
112 109 40 17 104 74 104 92 0 10 -14 14 -50 14 -35 0 -52 5 -58 17 -8 13 -19
15 -68 9 -209 -24 -214 -23 -183 28 11 19 32 42 46 51 28 19 233 54 323 55 61
2 100 12 83 23 -20 12 -377 10 -381 -2 -2 -6 -13 -11 -25 -11 -20 1 -21 2 -4
14 22 17 22 43 -1 55 -14 7 -23 6 -34 -6z m-929 -622 c9 -6 10 -11 2 -15 -13
-8 -31 1 -31 15 0 11 11 11 29 0z m901 -223 c0 -7 -5 -20 -10 -28 -8 -12 -10
-9 -10 13 0 15 5 27 10 27 6 0 10 -6 10 -12z m310 -47 c0 -6 -5 -13 -10 -16
-15 -9 -43 3 -35 15 8 13 45 13 45 1z m-166 -77 c9 -24 7 -144 -3 -144 -10 0
-21 59 -21 118 0 42 12 56 24 26z m-1609 -314 c6 -10 -32 -49 -48 -50 -14 0
-19 30 -7 45 14 17 46 20 55 5z m655 -11 c0 -12 -37 -12 -44 0 -3 4 -3 11 0
14 8 7 44 -4 44 -14z m-782 -166 c-2 -14 -14 -18 -46 -19 -29 -1 -47 -7 -57
-20 -16 -21 -19 -34 -7 -35 65 -6 90 -18 78 -38 -4 -6 -16 -11 -26 -11 -10 0
-22 -4 -25 -10 -3 -5 -16 -10 -27 -10 -12 0 -29 -7 -39 -16 -17 -15 -18 -14
-18 18 0 18 -2 49 -3 68 -3 31 0 35 22 38 14 2 30 9 35 16 9 12 70 32 103 35
8 1 12 -7 10 -16z m66 -40 c3 -10 9 -24 12 -30 3 -8 -2 -13 -15 -13 -22 0 -41
27 -34 48 7 18 30 15 37 -5z m3989 -97 c9 -13 23 -31 33 -40 28 -29 5 -31 -24
-2 -18 16 -35 24 -45 20 -14 -5 -14 -2 -4 20 15 32 21 32 40 2z m-4033 -36 c0
-12 -7 -20 -17 -20 -9 0 -25 -7 -35 -17 -27 -24 -34 -8 -9 23 11 15 21 33 21
41 0 11 4 11 20 3 11 -6 20 -20 20 -30z m4415 -33 c0 -39 -19 -38 -23 2 -3 24
0 32 10 29 7 -3 13 -17 13 -31z m-4585 -162 c0 -8 -7 -15 -15 -15 -8 0 -15 7
-15 15 0 8 7 15 15 15 8 0 15 -7 15 -15z m4560 -66 c0 -17 -29 -9 -40 10 -15
30 -12 33 15 15 14 -9 25 -20 25 -25z m-1167 -33 c9 -7 17 -18 17 -25 0 -17
-37 -13 -44 5 -14 35 -4 43 27 20z m257 -152 c0 -14 -3 -14 -15 -4 -8 7 -15
14 -15 16 0 2 7 4 15 4 8 0 15 -7 15 -16z m860 -26 c19 -24 18 -38 -5 -38 -18
0 -45 28 -45 46 0 22 30 17 50 -8z m98 -116 c38 -46 41 -49 73 -109 17 -32 37
-65 45 -74 17 -19 18 -69 2 -69 -7 0 -29 23 -48 50 -19 28 -50 67 -67 88 -35
40 -57 81 -69 126 -6 26 -5 28 17 21 13 -4 34 -19 47 -33z m-710 -22 c1 -8 -9
-20 -24 -27 -22 -10 -25 -10 -20 3 3 9 6 22 6 31 0 19 34 13 38 -7z m85 -20
c13 0 67 -53 67 -65 0 -7 13 -28 30 -46 16 -19 32 -42 36 -51 3 -10 10 -18 15
-18 11 0 12 -47 1 -54 -5 -3 -20 6 -33 18 -14 13 -40 27 -57 31 -22 4 -32 12
-32 25 0 10 -13 32 -30 50 -17 18 -30 43 -30 57 0 21 -4 24 -21 20 -30 -8 -35
20 -8 42 21 17 26 18 40 5 8 -8 19 -14 22 -14z m-3323 -19 c0 -20 -62 -71 -86
-71 -39 0 -26 43 21 68 25 14 65 15 65 3z m-686 -51 c-17 -34 -34 -39 -34 -12
0 15 16 29 47 41 1 1 -5 -12 -13 -29z m596 -85 c0 -16 -6 -25 -15 -25 -15 0
-21 31 -8 43 13 14 23 6 23 -18z m297 -21 c-9 -9 -28 6 -21 18 4 6 10 6 17 -1
6 -6 8 -13 4 -17z m-884 -28 c32 -21 35 -51 7 -66 -10 -6 -22 -26 -26 -45 -3
-19 -10 -38 -15 -41 -5 -3 -9 -14 -9 -25 0 -10 -9 -24 -20 -31 -11 -7 -30 -32
-41 -56 -22 -45 -15 -72 18 -72 11 0 13 -6 8 -22 -4 -13 -6 -58 -5 -100 1 -75
0 -78 -24 -88 -18 -7 -26 -17 -26 -34 0 -27 -24 -56 -46 -56 -9 0 -14 -10 -14
-27 0 -35 -55 -119 -83 -127 -35 -9 -57 -7 -57 5 0 7 -7 17 -16 24 -15 10 -14
18 9 86 14 41 28 97 32 126 4 29 13 57 21 64 8 6 14 17 14 24 0 7 11 28 24 47
13 20 27 55 31 78 l7 43 -37 -7 c-28 -6 -36 -4 -32 6 2 7 14 12 26 11 11 -2
21 1 22 5 0 4 1 26 3 49 1 28 10 51 25 67 13 14 20 29 17 35 -10 15 49 122 78
142 16 12 81 3 109 -15z m975 6 c3 -9 -3 -13 -19 -10 -12 1 -24 9 -27 16 -3 9
3 13 19 10 12 -1 24 -9 27 -16z m3422 -58 c0 -8 -7 -14 -15 -14 -15 0 -21 21
-9 33 10 9 24 -2 24 -19z m291 -51 c33 -6 94 -85 104 -133 9 -43 48 -106 89
-142 l31 -28 -25 -20 c-32 -25 -40 -25 -40 0 0 11 -3 20 -7 20 -5 0 -18 3 -30
6 -16 4 -23 0 -28 -17 -7 -20 -9 -20 -17 -6 -10 19 -43 23 -53 7 -15 -25 -40
-11 -116 65 -87 86 -112 155 -56 155 30 0 100 -68 122 -118 20 -45 32 -53 64
-45 35 9 36 40 1 80 -22 24 -30 42 -26 57 6 21 -27 66 -49 66 -20 0 -48 38
-41 56 4 12 13 14 29 9 12 -4 34 -9 48 -12z m-203 -40 c-4 -34 -45 -45 -65
-17 -17 24 0 44 39 44 26 0 29 -3 26 -27z m-112 -163 c8 0 20 -11 26 -25 6
-14 15 -25 20 -25 4 0 8 -9 8 -20 0 -11 -3 -20 -7 -20 -14 0 -52 46 -63 74
-10 27 -13 53 -3 29 2 -7 11 -13 19 -13z m114 -83 c1 -22 62 -97 79 -97 5 0
24 -19 44 -42 62 -76 129 -138 147 -138 29 0 220 -196 220 -226 0 -15 -6 -24
-15 -24 -25 0 -17 -18 40 -89 53 -65 64 -92 47 -117 -8 -14 -60 -15 -84 -3
-27 15 -98 85 -98 97 0 15 -40 91 -51 98 -5 3 -9 18 -9 33 0 28 -41 79 -105
131 -17 14 -41 43 -55 65 -13 22 -33 47 -44 56 -12 9 -21 30 -22 47 -2 37 -42
91 -94 127 -42 29 -50 57 -29 96 12 24 29 16 29 -14z m294 -112 c21 -14 25
-14 36 0 14 17 46 20 55 5 11 -17 37 -11 42 10 9 35 28 24 75 -45 18 -28 42
-73 52 -100 11 -27 34 -65 53 -84 35 -36 39 -54 23 -95 -8 -23 -12 -25 -34
-15 -22 11 -66 89 -66 119 0 6 -11 27 -24 48 -12 20 -26 47 -30 60 -9 29 -38
28 -72 -1 -32 -28 -27 -41 22 -62 40 -17 37 -35 -6 -35 -41 0 -60 10 -60 31 0
10 -9 23 -20 29 -11 6 -20 16 -20 23 0 13 -30 47 -74 84 -14 13 -26 32 -26 43
0 17 4 18 25 10 14 -5 36 -16 49 -25z m-3774 -60 c0 -8 -4 -15 -10 -15 -5 0
-10 7 -10 15 0 8 5 15 10 15 6 0 10 -7 10 -15z m3981 -248 c-13 -13 -26 -3
-16 12 3 6 11 8 17 5 6 -4 6 -10 -1 -17z m-125 -268 c18 -17 21 -26 13 -51
-10 -36 -5 -48 20 -48 27 0 44 -26 37 -55 -9 -35 -21 -32 -71 18 -49 48 -60
75 -50 123 7 39 20 43 51 13z m-4891 -79 c13 -22 -6 -50 -34 -50 -32 0 -56 22
-47 45 6 17 71 21 81 5z m48 -82 c7 -22 -4 -38 -28 -38 -30 0 -41 16 -25 35
15 18 47 20 53 3z m161 -474 c4 -9 5 -18 4 -18 -2 -1 -15 -10 -30 -19 -15 -9
-38 -17 -50 -17 -17 0 -19 3 -9 9 9 6 12 18 7 36 -4 16 -2 33 5 41 9 11 15 11
39 -1 15 -8 30 -22 34 -31z m478 -44 c9 -19 25 -61 35 -93 l18 -59 -23 -19
c-19 -14 -28 -16 -50 -8 -34 13 -62 38 -62 55 0 21 -30 44 -56 44 -23 0 -25 3
-22 37 3 34 8 40 48 60 62 31 91 26 112 -17z m-586 -11 c13 -22 -12 -30 -31
-9 -18 19 -18 20 3 20 11 0 24 -5 28 -11z m109 -19 c-3 -5 -13 -10 -21 -10 -8
0 -12 5 -9 10 3 6 13 10 21 10 8 0 12 -4 9 -10z m1077 -7 c35 -40 32 -59 -17
-92 -56 -38 -85 -39 -143 -5 -43 26 -46 26 -79 10 -36 -17 -77 -13 -70 7 7 21
51 37 102 37 39 0 60 7 95 30 51 34 90 38 112 13z m-1981 -13 c10 -6 28 -28
39 -49 11 -22 34 -51 52 -65 l33 -25 5 -190 c6 -217 13 -239 58 -183 15 18 34
32 42 32 8 1 31 16 50 35 19 19 37 35 42 35 4 0 20 14 36 31 39 42 62 34 62
-19 0 -22 7 -56 15 -75 10 -25 15 -71 15 -142 0 -70 5 -115 14 -133 7 -15 16
-55 19 -89 5 -57 3 -63 -13 -63 -11 0 -22 5 -25 10 -9 14 -42 13 -47 -2 -5
-14 -38 -3 -38 12 0 7 8 9 20 5 37 -12 20 19 -35 65 -30 24 -74 49 -97 56 -78
22 -88 26 -88 38 -1 6 -24 22 -53 35 -82 39 -113 73 -127 141 -11 52 -10 65 6
107 10 26 18 74 18 106 0 31 3 57 8 57 4 0 8 -7 8 -15 0 -8 9 -15 20 -15 11 0
20 2 20 4 0 2 3 11 6 20 4 9 -4 20 -23 29 -38 20 -50 46 -68 151 -18 105 -15
117 26 96z m1096 -175 c24 -21 26 -26 13 -35 -24 -16 -48 -12 -70 12 -21 23
-24 31 -13 41 13 14 43 6 70 -18z m1348 -9 c50 -14 103 -27 118 -31 16 -3 32
-16 39 -30 10 -21 13 -23 22 -9 9 11 27 14 80 12 39 -2 71 -8 73 -14 6 -17
-29 -52 -58 -59 -21 -5 -27 -2 -32 14 -8 30 -47 28 -47 -2 0 -13 -5 -28 -12
-35 -9 -9 -8 -12 5 -12 9 0 17 -6 17 -14 0 -23 -27 -38 -62 -34 l-33 3 -6 -65
c-4 -36 -10 -73 -14 -83 -7 -17 -8 -17 -21 0 -7 10 -14 25 -14 34 0 9 -7 19
-15 23 -8 3 -15 17 -15 31 0 16 -6 25 -15 25 -18 0 -19 -12 -4 -27 9 -9 3 -19
-21 -41 -33 -31 -33 -52 1 -52 12 0 19 -7 19 -19 0 -27 -20 -38 -32 -18 -8 15
-11 14 -28 -3 -11 -11 -28 -20 -38 -20 -30 0 -34 -12 -10 -37 16 -17 19 -26
11 -34 -7 -7 -17 -8 -25 -3 -22 14 -72 13 -83 -3 -6 -8 -30 -17 -53 -20 -37
-5 -45 -2 -71 26 -24 26 -30 28 -35 15 -5 -13 -15 -15 -41 -11 -19 3 -35 2
-35 -4 0 -5 5 -9 10 -9 6 0 10 -7 10 -15 0 -21 -50 -20 -95 2 -34 16 -36 20
-30 53 4 19 14 43 22 52 19 21 4 45 -30 50 -14 2 -22 10 -22 23 0 15 10 22 43
29 34 8 42 14 42 33 0 16 7 24 25 29 31 8 35 44 5 44 -11 0 -23 -7 -26 -15 -5
-11 -10 -12 -25 -2 -15 9 -23 7 -46 -9 -15 -12 -45 -24 -65 -28 -22 -4 -45
-17 -57 -31 -24 -31 -41 -32 -41 -1 0 20 -7 25 -60 36 -42 9 -63 10 -72 2 -7
-6 -27 -12 -43 -14 -26 -3 -30 1 -33 23 -3 22 -10 28 -38 33 -39 8 -44 28 -11
44 20 9 18 11 -20 11 -32 1 -45 6 -53 21 -6 11 -18 20 -27 20 -12 0 -14 3 -7
10 7 7 20 6 40 -5 16 -8 52 -15 81 -15 28 0 55 -5 59 -11 4 -7 21 -9 42 -6 44
8 123 -12 140 -35 19 -27 44 -22 93 17 41 32 49 35 115 35 74 0 137 18 151 44
7 13 220 98 263 105 3 1 46 -10 95 -23z m-2035 -1 c0 -8 -9 -15 -20 -15 -22 0
-27 15 -7 23 21 9 27 7 27 -8z m744 -44 c7 -11 -62 -53 -75 -46 -5 4 -9 13 -9
22 0 12 7 14 29 10 20 -4 31 -2 35 8 6 17 12 19 20 6z m44 -102 c-5 -52 -73
-111 -92 -80 -11 18 13 61 34 61 15 0 20 7 20 25 0 19 5 25 21 25 17 0 20 -5
17 -31z m1561 -54 c2 -11 11 -25 21 -32 11 -8 21 -32 25 -62 8 -58 -1 -83 -21
-57 -7 10 -17 15 -23 11 -18 -11 -12 -33 10 -40 19 -6 20 -12 13 -58 -4 -29
-7 -73 -8 -99 -1 -26 -5 -50 -9 -54 -13 -13 -7 -81 8 -94 9 -7 15 -29 15 -51
0 -30 -4 -39 -22 -45 -97 -29 -213 -113 -204 -146 2 -11 -1 -18 -10 -18 -8 0
-23 -9 -33 -19 -38 -38 -57 -42 -85 -20 -14 11 -26 27 -26 34 0 7 -11 27 -25
43 -15 19 -21 33 -15 37 15 10 12 35 -5 35 -22 0 -19 27 4 40 28 15 39 13 46
-10 10 -31 19 -25 50 38 25 48 35 58 60 60 39 5 49 14 75 67 17 35 19 48 10
65 -8 15 -8 29 2 55 9 27 9 45 1 77 -10 36 -9 47 8 80 12 24 27 38 38 38 10 0
22 7 25 16 11 28 -5 35 -31 14 -31 -24 -58 -27 -49 -4 3 9 9 26 12 39 3 13 12
26 20 29 8 3 14 11 14 18 0 36 102 48 109 13z m-942 -111 c2 -6 -8 -16 -22
-22 -28 -13 -30 -10 -14 19 10 20 30 22 36 3z m-60 -141 c4 -9 1 -19 -5 -21
-29 -9 -8 -22 37 -22 29 0 53 -6 60 -14 16 -19 -4 -33 -61 -41 -38 -6 -48 -11
-48 -26 0 -11 -7 -22 -16 -26 -19 -7 -53 32 -54 62 0 11 -7 29 -15 39 -35 46
-8 72 39 40 23 -14 25 -14 31 5 8 25 23 27 32 4z m-1636 -85 c22 -6 39 -15 39
-19 0 -5 14 -22 30 -39 31 -32 38 -50 19 -50 -16 0 -53 22 -62 36 -11 19 -33
18 -41 -2 -9 -23 -24 -8 -19 20 3 13 0 27 -6 30 -12 8 -15 36 -5 36 4 0 24 -5
45 -12z m2172 -13 c-4 -15 -36 -12 -41 3 -3 9 3 13 19 10 13 -1 23 -7 22 -13z
m-1229 -41 c19 -7 21 -30 4 -37 -7 -2 -21 0 -31 5 -15 7 -16 12 -6 24 13 16
12 16 33 8z m106 -30 c0 -22 -22 -28 -36 -9 -18 24 1 52 22 34 8 -6 14 -17 14
-25z m-1030 -39 c0 -16 -6 -25 -15 -25 -15 0 -21 31 -8 43 13 14 23 6 23 -18z
m766 -72 c32 -30 30 -40 -11 -57 -27 -12 -35 -21 -35 -40 0 -14 8 -29 18 -35
13 -8 14 -12 5 -22 -10 -10 -14 -8 -20 7 -4 10 -13 24 -21 29 -8 7 -12 23 -10
40 3 26 7 30 31 27 23 -2 27 1 27 23 0 14 -4 25 -10 25 -14 0 -24 46 -13 62 6
9 9 6 11 -12 2 -13 15 -35 28 -47z m301 55 c-2 -7 0 -21 5 -31 12 -23 3 -36
-22 -30 -24 6 -26 30 -3 55 19 21 27 23 20 6z m-1017 -16 c0 -14 -11 -21 -26
-15 -8 3 -11 9 -8 14 7 11 34 12 34 1z m1150 -6 c0 -18 -16 -29 -30 -21 -13 8
-1 35 16 35 8 0 14 -6 14 -14z m-520 -35 c0 -5 -7 -14 -16 -22 -13 -10 -17
-10 -25 2 -10 17 -12 33 -3 42 8 8 44 -10 44 -22z m317 18 c9 -9 5 -20 -14
-45 -21 -28 -23 -37 -13 -49 10 -12 9 -15 -8 -15 -11 0 -22 -8 -25 -20 -3 -11
-12 -20 -21 -20 -21 0 -21 39 1 55 11 8 14 18 8 31 -11 26 -7 46 13 61 21 16
45 16 59 2z m767 -25 c10 -26 -4 -66 -21 -60 -8 3 -17 6 -19 6 -8 0 -4 31 6
51 13 23 26 24 34 3z m-340 -10 c20 -8 11 -24 -15 -24 -19 0 -25 11 -12 23 8
8 8 8 27 1z m-1194 -65 c0 -27 -2 -30 -15 -19 -24 20 -19 39 13 49 1 1 2 -13
2 -30z m640 -1 c0 -4 -9 -17 -20 -28 -21 -21 -40 -19 -40 5 0 7 -6 16 -12 19
-7 3 -4 4 7 3 14 -1 19 3 17 15 -2 16 0 16 23 6 14 -6 25 -15 25 -20z m-214
-45 c-3 -8 -6 -23 -6 -34 0 -30 -14 -22 -26 14 -14 45 -8 60 18 46 12 -6 17
-17 14 -26z m-241 -103 c3 -5 2 -16 -2 -24 -10 -18 -53 -3 -53 19 0 17 45 21
55 5z m1883 -67 c2 -8 -6 -13 -22 -13 -25 0 -33 10 -19 24 10 10 36 3 41 -11z
m-1524 -201 c2 -23 0 -42 -5 -42 -5 0 -9 21 -9 47 0 56 8 53 14 -5z m21 -182
c3 -5 -3 -10 -14 -10 -12 0 -21 5 -21 10 0 6 6 10 14 10 8 0 18 -4 21 -10z
m72 -712 c-2 -13 -4 -5 -4 17 -1 22 1 32 4 23 2 -10 2 -28 0 -40z"/>
<path d="M6500 7666 c0 -8 76 -86 83 -86 15 0 6 21 -24 55 -26 29 -59 47 -59
31z"/>
<path d="M6270 7231 c0 -12 29 -23 41 -15 5 3 7 10 4 15 -8 12 -45 12 -45 0z"/>
<path d="M2686 5805 c-16 -12 -17 -15 -4 -15 8 0 21 7 28 15 16 19 1 19 -24 0z"/>
<path d="M3481 5811 c-12 -8 -12 -12 -2 -25 8 -9 21 -16 31 -16 26 0 33 28 10
40 -22 12 -21 12 -39 1z"/>
<path d="M3494 5719 c-8 -14 14 -29 33 -22 7 3 13 11 13 19 0 17 -36 19 -46 3z"/>
<path d="M3427 5634 c-17 -18 -6 -35 21 -32 16 2 27 9 27 18 0 16 -36 26 -48
14z"/>
<path d="M2481 5518 c0 -7 4 -22 9 -33 7 -17 9 -15 9 13 1 17 -3 32 -9 32 -5
0 -10 -6 -9 -12z"/>
<path d="M2580 5458 c0 -7 8 -23 18 -35 17 -22 17 -22 41 -4 l25 19 -38 16
c-46 19 -46 19 -46 4z"/>
<path d="M3534 5435 c-4 -8 -12 -15 -20 -15 -16 0 -19 -16 -4 -25 14 -9 58 27
52 43 -5 17 -21 15 -28 -3z"/>
<path d="M2483 5394 c-10 -28 13 -37 25 -9 10 21 9 25 -4 25 -8 0 -17 -7 -21
-16z"/>
<path d="M3600 5152 c0 -10 -5 -23 -12 -30 -15 -15 -2 -29 38 -41 37 -10 123
23 89 35 -11 4 -28 14 -37 22 -14 12 -20 12 -33 2 -13 -10 -15 -9 -15 9 0 12
-6 21 -15 21 -8 0 -15 -8 -15 -18z"/>
<path d="M5870 5126 c0 -20 27 -39 45 -32 8 3 15 15 15 26 0 16 -7 20 -30 20
-19 0 -30 -5 -30 -14z"/>
<path d="M5867 5045 c-4 -9 -19 -15 -37 -15 -16 0 -30 -4 -30 -9 0 -11 29 -23
41 -16 5 3 18 1 29 -5 29 -16 24 -64 -7 -68 -24 -3 -32 -22 -11 -22 17 0 100
31 116 43 19 15 9 31 -24 37 -23 4 -30 12 -34 35 -6 32 -34 46 -43 20z"/>
<path d="M6155 5050 c-3 -5 0 -13 9 -16 21 -8 71 -1 71 11 0 14 -72 19 -80 5z"/>
<path d="M5530 5011 c-57 -18 -86 -32 -88 -43 -2 -10 -12 -20 -23 -23 -10 -4
-19 -10 -19 -15 0 -5 -9 -14 -21 -20 -24 -13 -53 4 -45 27 7 17 -20 29 -37 15
-6 -5 -30 -13 -52 -17 -22 -4 -46 -12 -54 -18 -20 -17 -61 -84 -61 -100 0 -8
-10 -25 -23 -38 -32 -33 -39 -55 -21 -70 10 -9 21 -9 37 -2 51 23 96 31 155
27 35 -2 72 1 82 6 13 7 21 7 25 0 10 -16 52 -11 95 11 l40 21 -25 32 c-13 17
-31 39 -40 49 -15 17 -9 22 23 18 21 -3 52 29 52 54 0 30 39 72 73 79 15 3 38
8 52 11 14 3 23 10 20 15 -10 16 -54 10 -145 -19z"/>
<path d="M6088 5023 c-20 -5 -24 -23 -5 -23 17 0 41 17 31 22 -5 2 -17 3 -26
1z"/>
<path d="M5723 4893 c-12 -2 -25 -13 -28 -24 -4 -10 -17 -22 -31 -25 -30 -8
-32 -24 -1 -23 28 1 120 50 125 67 4 12 -19 14 -65 5z"/>
<path d="M5590 4800 c0 -5 7 -10 15 -10 8 0 15 5 15 10 0 6 -7 10 -15 10 -8 0
-15 -4 -15 -10z"/>
<path d="M5683 4673 c-12 -2 -27 -11 -33 -19 -7 -8 -18 -14 -25 -14 -7 0 -18
-7 -25 -15 -16 -19 -44 -19 -60 0 -16 19 -26 12 -33 -24 -5 -25 -11 -30 -49
-34 -93 -12 -108 -19 -146 -64 -30 -36 -42 -43 -62 -40 -29 6 -53 -5 -95 -44
-16 -16 -45 -36 -62 -44 -18 -9 -33 -24 -33 -33 0 -9 -16 -33 -35 -52 -36 -35
-42 -54 -26 -79 8 -12 14 -12 44 2 19 10 38 17 41 17 4 0 31 20 62 45 30 25
61 45 69 45 8 0 21 14 30 30 9 17 22 30 29 30 7 0 19 7 26 15 7 9 21 13 31 10
12 -4 21 -1 24 8 4 10 26 14 80 14 87 0 95 -11 35 -51 -46 -30 -55 -66 -16
-66 22 0 24 -5 30 -77 4 -42 14 -101 22 -132 22 -87 20 -98 -25 -112 -32 -10
-42 -9 -64 6 -15 9 -29 26 -33 37 -5 17 -8 18 -22 5 -12 -11 -24 -12 -41 -6
-22 9 -23 13 -19 74 4 44 14 78 32 109 14 24 26 47 26 50 0 17 -29 1 -70 -38
-37 -35 -57 -46 -115 -60 -41 -10 -79 -26 -92 -39 -13 -12 -32 -31 -43 -41
-27 -27 -25 -43 8 -60 16 -8 34 -22 41 -30 8 -9 24 -16 38 -16 13 0 34 -7 47
-15 21 -14 28 -14 70 0 47 16 91 17 91 2 0 -12 -216 -97 -247 -97 -38 0 -61
25 -47 53 10 17 8 24 -11 39 -32 26 -52 22 -77 -15 -29 -42 -29 -59 0 -92 l23
-27 186 -1 c128 -1 191 3 200 11 14 12 425 45 440 36 5 -3 41 0 81 6 39 6 90
12 112 14 84 5 133 26 176 75 51 57 89 131 89 171 0 17 6 46 14 65 11 25 12
44 6 66 -6 20 -6 38 1 50 10 20 44 26 54 9 3 -5 18 -10 33 -10 31 0 59 -17
125 -76 37 -33 47 -48 47 -73 0 -41 30 -42 62 -2 35 43 62 48 85 14 10 -15 24
-40 31 -55 11 -28 35 -37 47 -19 3 5 0 21 -6 35 -14 31 0 72 37 107 23 21 32
49 17 49 -5 0 -27 -7 -49 -15 -50 -17 -85 -9 -113 26 -11 15 -31 29 -43 32
-13 3 -54 17 -92 31 -38 14 -77 26 -87 26 -42 0 -115 33 -142 63 l-28 32 -129
-2 c-127 -2 -130 -2 -153 23 l-24 25 -63 -20 c-74 -24 -110 -27 -110 -7 0 16
17 31 48 41 12 3 34 17 47 31 23 22 29 24 93 18 52 -5 75 -3 98 9 20 10 35 12
45 6 19 -12 56 -11 65 2 3 6 0 18 -9 26 -12 12 -55 17 -194 24 -189 8 -254 9
-290 2z m37 -138 c0 -8 -7 -15 -15 -15 -8 0 -15 7 -15 15 0 8 7 15 15 15 8 0
15 -7 15 -15z m-60 -20 c0 -19 -20 -29 -32 -17 -8 8 -7 16 2 26 14 17 30 12
30 -9z m213 -193 c55 -37 73 -85 42 -115 -17 -17 -104 -32 -134 -22 -70 22
-29 150 49 154 8 0 27 -7 43 -17z m363 -91 c-9 -14 -33 -14 -41 -1 -4 6 -1 18
6 26 11 13 14 13 27 0 8 -8 11 -19 8 -25z m-149 -168 c4 -11 0 -21 -11 -27
-10 -6 -37 -26 -60 -43 -49 -39 -56 -40 -56 -9 0 14 -4 36 -10 51 l-10 26 49
-7 c39 -5 49 -3 54 10 8 21 36 21 44 -1z"/>
<path d="M2565 4628 c9 -56 17 -64 60 -66 28 -1 35 2 35 18 0 26 -15 33 -31
14 -11 -14 -15 -13 -30 7 -14 19 -15 25 -3 37 18 17 9 32 -17 32 -19 0 -20 -4
-14 -42z"/>
<path d="M2716 4593 c-10 -11 -6 -49 7 -67 12 -16 14 -16 26 -2 23 27 -9 93
-33 69z"/>
<path d="M2773 4574 c-8 -21 13 -42 28 -27 13 13 5 43 -11 43 -6 0 -13 -7 -17
-16z"/>
<path d="M2881 4495 c-11 -19 -25 -35 -31 -35 -5 0 -10 -4 -10 -10 0 -19 30
-10 46 15 9 14 25 25 35 25 22 0 24 11 7 28 -18 18 -24 15 -47 -23z"/>
<path d="M2990 3011 c0 -12 5 -21 10 -21 6 0 10 6 10 14 0 8 -4 18 -10 21 -5
3 -10 -3 -10 -14z"/>
<path d="M2835 2959 c-10 -15 3 -25 16 -12 7 7 7 13 1 17 -6 3 -14 1 -17 -5z"/>
<path d="M2596 2925 c-31 -28 -37 -79 -8 -73 11 2 18 14 20 36 2 18 10 36 18
39 15 6 19 23 5 23 -4 0 -20 -11 -35 -25z"/>
<path d="M4972 2865 c-7 -14 -19 -28 -27 -31 -21 -9 -19 -24 4 -24 10 0 21 7
25 15 3 8 17 15 31 15 30 0 32 11 7 33 -24 22 -27 22 -40 -8z"/>
<path d="M4850 2831 c0 -12 5 -21 10 -21 6 0 10 6 10 14 0 8 -4 18 -10 21 -5
3 -10 -3 -10 -14z"/>
<path d="M4220 2795 c0 -8 5 -15 10 -15 6 0 15 -11 20 -25 7 -17 17 -25 34
-25 14 0 27 4 31 9 6 11 -21 41 -36 41 -6 0 -17 7 -25 15 -9 8 -20 15 -25 15
-5 0 -9 -7 -9 -15z"/>
<path d="M2690 1865 c0 -8 9 -15 20 -15 11 0 20 7 20 15 0 8 -9 15 -20 15 -11
0 -20 -7 -20 -15z"/>
<path d="M5225 1871 c-45 -5 -48 -7 -29 -18 11 -7 30 -9 42 -6 13 3 28 -1 37
-11 9 -9 28 -16 43 -16 15 0 36 -7 46 -15 22 -17 76 -20 76 -6 0 14 -100 68
-135 73 -16 3 -52 2 -80 -1z"/>
<path d="M5020 1866 c0 -10 28 -13 41 -5 10 6 7 9 -13 9 -16 0 -28 -2 -28 -4z"/>
<path d="M5096 1860 c12 -4 24 -16 28 -26 5 -13 10 -14 18 -6 19 19 1 42 -34
41 -28 0 -30 -1 -12 -9z"/>
<path d="M5563 1850 c-3 -13 -19 -24 -44 -30 -61 -17 -46 -28 36 -27 69 1 75
3 75 23 0 22 -29 54 -49 54 -7 0 -15 -9 -18 -20z"/>
<path d="M4809 1831 c-9 -10 -23 -21 -30 -23 -8 -3 -10 -9 -6 -14 5 -5 22 -1
38 9 17 9 42 17 56 17 35 0 24 25 -13 27 -17 1 -35 -5 -45 -16z"/>
<path d="M5010 1800 c0 -5 4 -10 9 -10 5 0 11 -10 13 -22 3 -25 21 -28 26 -5
2 8 -9 22 -23 31 -14 9 -25 12 -25 6z"/>
<path d="M4577 1755 c-21 -12 -52 -35 -70 -52 -67 -62 -141 -113 -177 -123
-34 -9 -50 -25 -50 -50 0 -4 11 -11 25 -14 30 -8 33 -26 5 -33 -25 -7 -26 -29
-2 -41 9 -5 44 -13 77 -17 33 -4 68 -11 79 -17 10 -6 102 -10 215 -9 173 0
203 3 256 22 33 11 67 27 75 34 8 7 26 15 40 17 17 2 26 10 28 26 2 12 -1 22
-7 22 -6 0 -11 -4 -11 -10 0 -5 -12 -10 -27 -10 -21 0 -24 3 -15 12 21 21 13
37 -26 57 -36 18 -40 19 -55 3 -16 -15 -17 -15 -17 7 0 14 -7 25 -20 28 -13 3
-20 14 -20 28 0 12 -6 28 -14 34 -7 6 -17 35 -21 64 l-8 52 -17 -55 -17 -55
-7 42 c-12 65 -46 69 -46 5 0 -20 -3 -32 -7 -28 -4 3 -6 24 -5 45 l3 38 -63 0
c-47 0 -72 -5 -101 -22z m83 -64 c0 -48 -8 -71 -25 -71 -7 0 -15 -9 -18 -20
-5 -21 -31 -27 -42 -10 -4 6 -2 16 3 23 5 7 8 32 6 57 -3 56 0 60 42 60 33 0
34 -1 34 -39z"/>
<path d="M3674 1757 c-10 -27 24 -77 56 -84 16 -3 35 -12 41 -19 6 -8 15 -12
19 -9 13 8 -1 45 -16 45 -8 0 -14 5 -14 11 0 5 -8 9 -17 7 -25 -4 -43 10 -43
32 0 24 -18 36 -26 17z"/>
<path d="M4904 1675 c-4 -18 -2 -32 9 -43 15 -14 17 -14 22 0 9 24 2 61 -12
65 -7 3 -15 -8 -19 -22z"/>
<path d="M2670 1656 c0 -9 -8 -16 -19 -16 -17 0 -31 -18 -31 -39 0 -4 13 -23
30 -42 45 -52 46 -53 53 -73 8 -19 8 -19 30 2 l21 22 -42 43 c-49 50 -56 87
-16 87 31 0 28 23 -4 28 -15 2 -22 -2 -22 -12z"/>
<path d="M3826 1622 c-2 -4 12 -21 32 -38 29 -24 50 -32 100 -37 34 -4 62 -3
62 2 0 11 -147 81 -170 81 -11 0 -21 -3 -24 -8z"/>
<path d="M2773 1445 c-7 -8 -13 -19 -13 -25 0 -11 100 -120 109 -120 4 0 12
12 19 28 10 23 10 29 -3 38 -8 6 -15 18 -15 26 0 22 -12 29 -27 16 -16 -13
-29 -3 -35 26 -4 25 -19 29 -35 11z"/>
<path d="M4505 1228 c-27 -11 -87 -38 -132 -59 -88 -42 -103 -45 -121 -27 -10
10 -18 6 -38 -20 -14 -17 -34 -32 -44 -32 -12 0 -25 -13 -35 -34 -10 -21 -28
-39 -46 -45 -16 -5 -29 -16 -29 -23 0 -8 20 -32 44 -55 45 -42 61 -40 44 6
-12 34 -7 34 34 1 32 -27 40 -29 89 -24 30 3 64 11 77 17 18 8 25 7 35 -7 10
-13 20 -16 35 -12 29 10 28 26 -5 52 -21 17 -25 25 -17 34 13 13 54 5 54 -11
0 -5 9 -9 20 -9 23 0 27 25 5 34 -8 3 -15 10 -15 16 0 5 7 10 15 10 9 0 15 9
15 21 0 18 4 20 26 15 49 -13 75 36 30 54 -14 5 -29 17 -35 28 -8 15 -4 21 24
34 l34 15 6 -39 c6 -34 10 -38 36 -38 26 0 29 3 29 31 0 21 -9 39 -32 60 -38
34 -39 34 -103 7z m-177 -146 c-4 -22 -46 -28 -54 -8 -4 9 -1 23 6 31 16 19
53 1 48 -23z m40 -30 c3 -9 -2 -13 -14 -10 -9 1 -19 9 -22 16 -3 9 2 13 14 10
9 -1 19 -9 22 -16z"/>
<path d="M4665 1241 c-9 -15 25 -65 47 -69 9 -2 18 3 21 11 4 11 0 13 -14 10
-12 -4 -19 0 -19 9 0 8 -6 22 -13 33 -11 13 -16 15 -22 6z"/>
<path d="M3770 996 c0 -9 7 -16 16 -16 17 0 14 22 -4 28 -7 2 -12 -3 -12 -12z"/>
<path d="M4016 913 c-11 -11 -6 -23 9 -23 8 0 15 4 15 9 0 13 -16 22 -24 14z"/>
<path d="M3992 695 c-24 -25 -29 -61 -9 -68 6 -2 20 9 30 25 31 52 17 82 -21
43z"/>
<path d="M4252 593 c-35 -7 -8 -33 33 -33 49 0 68 9 54 26 -11 14 -40 16 -87
7z"/>
<path d="M4476 591 c-18 -7 -18 -8 -3 -14 21 -8 49 2 41 14 -6 10 -12 10 -38
0z"/>
</g>
</svg>
