 <svg  version="1.0" xmlns="http://www.w3.org/2000/svg"  width="450.000000pt" height="450.000000pt" viewBox="0 0 450.000000 450.000000"  preserveAspectRatio="xMidYMid meet">  <g transform="translate(0.000000,450.000000) scale(0.100000,-0.100000)" fill="#ff2600" stroke="none"> <path d="M2268 4240 c-4 -24 -1 -29 11 -26 21 7 55 -19 46 -34 -5 -8 6 -10 41 -5 56 8 87 28 39 25 -16 -1 -32 -1 -35 0 -3 1 -15 3 -27 4 -24 3 -40 13 -32 20 15 15 265 -6 301 -25 24 -12 41 -11 33 1 -4 7 3 9 22 5 25 -5 24 -3 -7 11 -23 10 -68 17 -127 18 -51 1 -96 5 -99 9 -4 4 -41 4 -82 0 -53 -4 -73 -3 -68 5 3 6 2 13 -3 16 -5 3 -11 -8 -13 -24z"/> <path d="M2179 4244 c-11 -14 -9 -15 16 -12 16 1 30 9 33 16 6 18 -33 15 -49 -4z"/> <path d="M2047 4219 c-9 -6 -25 -9 -35 -8 -9 1 -34 -1 -54 -5 -33 -7 -38 -12 -38 -36 0 -18 -9 -36 -25 -48 -13 -11 -22 -21 -20 -24 2 -2 -2 -21 -9 -43 -17 -47 -12 -62 17 -60 14 1 22 8 22 21 1 10 5 25 10 33 6 11 4 13 -9 8 -10 -4 -15 -3 -11 3 3 6 15 10 25 10 13 0 17 5 14 14 -3 8 -1 17 5 21 6 3 11 2 11 -3 0 -6 7 -12 15 -16 13 -4 13 -2 5 14 -7 14 -7 21 3 27 7 4 18 19 25 33 10 21 12 22 11 5 -2 -34 1 -41 11 -25 8 13 10 12 10 -4 0 -18 1 -18 23 2 32 30 78 42 164 42 42 0 73 4 73 10 0 13 -186 13 -211 0 -13 -7 -19 -7 -19 0 0 5 5 10 10 10 6 0 10 7 10 15 0 17 -8 18 -33 4z m-79 -82 c-24 -25 -68 -49 -68 -39 0 6 15 21 33 33 17 13 34 28 36 34 3 6 6 5 8 -2 3 -7 -1 -19 -9 -26z"/> <path d="M2680 4190 c-18 -6 -20 -8 -7 -9 10 -1 16 -5 13 -10 -6 -8 84 -34 92 -26 2 1 -16 10 -40 18 -41 15 -42 15 -13 17 26 1 27 3 10 10 -24 10 -23 10 -55 0z"/> <path d="M2435 4169 c-66 -5 -67 -6 -17 -7 28 -1 52 -6 52 -12 0 -5 9 -10 20 -10 11 0 20 5 20 10 0 6 9 10 20 10 23 0 124 -24 188 -45 23 -8 42 -11 42 -6 0 8 -81 35 -135 46 -84 16 -126 20 -190 14z"/> <path d="M2780 4160 c14 -11 35 -23 48 -26 12 -3 22 -10 22 -15 0 -5 7 -9 15 -9 9 0 12 6 8 16 -5 15 -3 15 26 0 17 -9 31 -21 31 -26 0 -9 84 -50 103 -50 6 0 -36 30 -92 66 -69 44 -106 62 -111 55 -5 -9 -14 -9 -34 -1 -40 15 -44 12 -16 -10z"/> <path d="M2583 4127 c21 -6 36 -16 33 -22 -2 -7 10 -11 31 -12 25 -1 42 -9 57 -26 16 -19 33 -26 77 -30 31 -3 65 -10 75 -16 11 -6 45 -22 77 -35 45 -20 57 -22 57 -10 0 7 -7 14 -15 14 -8 0 -40 12 -72 26 -57 26 -100 36 -155 38 -33 1 -38 16 -5 17 12 0 -5 9 -38 20 -33 11 -74 27 -92 35 -17 7 -39 13 -50 13 -10 -1 -1 -6 20 -12z"/> <path d="M2080 4109 c-19 -4 -41 -6 -47 -4 -8 3 -13 -4 -13 -15 0 -20 11 -26 24 -13 4 4 19 8 34 10 l27 2 -25 -12 c-14 -6 -28 -16 -32 -22 -9 -13 -44 8 -40 24 1 6 -2 11 -7 11 -5 0 -9 -17 -9 -37 0 -21 3 -31 7 -23 4 10 23 16 59 17 46 2 52 0 52 -17 0 -11 -4 -20 -8 -20 -4 0 -6 -16 -4 -35 5 -40 12 -44 30 -15 7 11 19 20 27 20 8 0 15 5 15 11 0 7 -11 8 -30 4 -32 -7 -43 11 -13 22 9 4 24 14 33 22 9 9 31 24 49 33 39 21 32 42 -11 33 -21 -5 -28 -4 -24 4 8 13 -41 13 -94 0z"/> <path d="M2520 4085 c0 -8 7 -15 15 -15 8 0 23 -9 32 -19 9 -11 21 -18 25 -14 5 3 2 14 -8 24 -11 12 -13 19 -5 19 7 0 9 5 6 10 -5 8 -12 7 -23 -2 -12 -10 -16 -10 -19 0 -6 17 -23 15 -23 -3z"/> <path d="M2620 4070 c-20 -6 -21 -8 -5 -8 11 0 31 4 45 8 20 6 21 8 5 8 -11 0 -31 -4 -45 -8z"/> <path d="M2872 4060 c7 -11 18 -20 25 -20 6 0 20 -3 30 -7 16 -6 16 -5 4 10 -19 23 -13 22 79 -19 45 -19 84 -33 87 -31 12 12 -177 87 -219 87 -16 0 -16 -3 -6 -20z"/> <path d="M2393 4055 c13 -9 15 -15 6 -20 -6 -4 -15 -2 -19 6 -7 10 -12 10 -23 1 -7 -7 -16 -9 -19 -6 -3 3 -9 1 -13 -5 -6 -11 32 -15 101 -11 18 1 35 -3 38 -8 3 -5 16 -7 30 -5 13 3 27 0 30 -6 9 -14 56 -14 76 -1 12 7 8 10 -15 10 -32 0 -74 19 -45 20 11 1 10 4 -4 15 -23 17 -56 20 -56 5 0 -5 9 -10 21 -10 11 0 18 -4 15 -9 -4 -5 -24 -4 -48 2 -23 6 -37 12 -30 15 24 8 11 17 -26 19 -33 2 -35 0 -19 -12z"/> <path d="M2610 4040 c0 -5 10 -10 23 -10 34 0 301 -73 309 -85 5 -6 8 -4 8 5 0 16 -76 43 -172 61 -32 5 -70 16 -85 24 -32 17 -83 20 -83 5z"/> <path d="M1690 4029 c0 -6 -7 -8 -16 -5 -17 6 -93 -23 -94 -36 0 -4 5 -10 10 -13 6 -4 4 -12 -5 -21 -8 -9 -19 -12 -25 -9 -5 3 -10 2 -10 -3 0 -4 16 -16 35 -25 19 -9 35 -22 35 -27 0 -6 5 -8 11 -5 5 4 18 0 27 -8 32 -27 52 -28 61 -4 5 12 21 35 35 52 15 17 22 33 16 39 -4 4 -36 7 -69 4 -55 -4 -61 -2 -61 15 0 16 5 18 39 12 31 -5 40 -3 45 11 4 10 1 21 -6 26 -18 11 -28 10 -28 -3z m-53 -99 c1 -11 -2 -18 -8 -15 -11 7 -12 35 -1 35 4 0 8 -9 9 -20z"/> <path d="M2053 3994 c-3 -8 -2 -19 3 -24 5 -5 10 1 10 16 2 27 -4 31 -13 8z"/> <path d="M2646 4001 c-3 -5 6 -11 19 -14 29 -5 43 8 19 17 -22 8 -32 8 -38 -3z"/> <path d="M3115 3992 c-3 -8 0 -20 6 -26 9 -8 10 -6 5 7 -4 13 -2 17 6 14 7 -2 12 -11 10 -18 -2 -8 -1 -11 3 -7 4 3 15 -2 26 -13 10 -10 28 -19 38 -19 11 0 23 -4 26 -10 7 -12 25 -13 25 -2 0 4 -16 16 -35 26 -19 11 -35 23 -35 28 0 4 -7 8 -15 8 -8 0 -15 4 -15 9 0 16 -38 19 -45 3z"/> <path d="M1904 3983 c-17 -3 -54 -49 -54 -67 0 -4 12 -3 28 0 l27 7 -21 -24 c-16 -18 -20 -33 -17 -56 4 -24 1 -34 -11 -39 -18 -7 -22 -39 -6 -49 17 -11 11 -50 -11 -68 -16 -15 -18 -21 -9 -33 10 -11 9 -14 -3 -14 -20 0 -29 -27 -17 -50 7 -13 6 -20 -3 -23 -9 -4 -9 -7 1 -18 6 -7 12 -17 12 -21 0 -15 -27 -8 -45 12 -10 11 -15 20 -12 20 4 0 -3 10 -15 22 -19 19 -22 20 -33 5 -15 -21 -35 -22 -35 -2 0 8 5 15 11 15 6 0 9 9 6 20 -4 15 0 20 15 20 17 0 18 3 8 15 -7 8 -26 15 -42 15 -25 0 -28 3 -25 27 3 20 12 30 37 38 45 15 50 33 8 28 l-33 -4 28 16 c37 21 33 51 -7 47 -23 -2 -27 0 -23 15 5 14 -8 25 -59 50 -60 30 -67 31 -102 20 -32 -11 -37 -16 -34 -40 2 -19 -1 -25 -11 -21 -16 6 -77 -44 -77 -63 0 -17 -33 -33 -69 -33 -21 0 -31 -5 -31 -15 0 -8 7 -15 16 -15 26 0 9 -25 -19 -28 -15 -2 -27 -10 -27 -18 0 -8 -9 -14 -19 -14 -29 0 -33 -15 -11 -40 21 -24 26 -50 11 -50 -5 0 -13 9 -16 20 -7 22 -13 24 -34 11 -9 -6 -11 -16 -6 -32 l8 -24 -23 20 c-20 17 -23 18 -17 3 4 -10 2 -18 -4 -18 -6 0 -7 -4 -4 -10 3 -5 1 -10 -5 -10 -6 0 -8 -15 -5 -40 4 -32 2 -40 -11 -40 -9 0 -14 -6 -11 -12 2 -7 12 -12 22 -10 10 2 14 -1 10 -7 -3 -6 -14 -11 -24 -11 -13 0 -18 -8 -18 -30 0 -36 7 -37 37 -5 14 15 23 38 24 60 1 36 18 53 69 69 24 8 21 31 -5 44 -13 6 -18 11 -13 11 6 1 28 -8 49 -18 41 -21 74 -19 53 4 -6 7 -18 10 -25 7 -10 -3 -13 1 -10 14 5 26 51 33 46 7 -2 -12 4 -19 20 -21 12 -2 22 1 22 7 0 6 -8 11 -17 11 -13 0 -14 3 -5 12 19 19 14 31 -13 26 -24 -5 -34 10 -18 26 4 4 8 15 8 24 0 9 6 16 13 14 6 -1 12 5 12 13 0 9 6 12 17 8 11 -4 14 -3 9 5 -4 7 -2 12 5 12 8 0 7 5 -2 17 -13 15 -12 15 8 4 19 -10 22 -9 17 4 -4 10 0 15 10 15 9 0 16 6 16 13 0 7 9 19 19 27 11 7 18 17 16 20 -3 4 6 6 20 5 16 -2 22 1 18 10 -7 21 7 40 18 24 7 -11 9 -10 9 3 0 10 9 22 21 28 19 10 20 10 10 -9 -15 -27 -14 -38 2 -19 20 27 51 27 55 1 2 -13 8 -23 14 -23 5 0 8 -7 4 -15 -4 -10 1 -15 16 -15 20 0 21 -1 3 -20 -11 -12 -13 -20 -6 -20 7 0 10 -4 6 -10 -10 -16 -33 0 -28 21 4 15 0 19 -18 18 -13 0 -18 -3 -11 -6 6 -2 12 -10 12 -16 0 -6 10 -21 22 -34 17 -18 19 -26 10 -35 -9 -9 -12 -7 -12 9 0 12 -8 23 -20 26 -11 3 -20 1 -20 -4 0 -5 -7 -9 -16 -9 -8 0 -12 -5 -9 -10 5 -8 11 -7 20 0 20 17 33 5 28 -24 -4 -21 -1 -25 23 -28 15 -2 29 -9 32 -16 2 -7 -2 -12 -9 -11 -8 1 -27 -3 -42 -9 -30 -13 -28 -32 2 -32 10 0 32 -7 50 -16 l31 -16 -22 -18 -22 -18 28 3 c28 3 76 -10 86 -23 5 -7 76 -42 85 -42 2 0 2 7 -1 15 -4 8 -10 12 -15 9 -5 -3 -9 4 -9 15 0 11 9 22 20 26 20 6 28 35 10 35 -5 0 -10 -8 -10 -17 0 -15 -2 -16 -10 -3 -5 9 -5 19 0 26 6 6 7 14 3 17 -3 4 -1 7 5 7 6 0 9 6 6 14 -3 8 3 17 14 20 11 4 23 13 26 21 3 10 0 12 -11 8 -14 -5 -14 -3 1 19 9 13 13 27 10 31 -4 4 7 2 25 -3 19 -5 31 -5 31 1 0 5 -5 9 -11 9 -6 0 -9 7 -5 15 7 18 -5 20 -23 3 -10 -11 -12 -8 -9 12 2 17 8 24 21 22 9 -2 17 3 17 11 0 23 -11 27 -28 10 -12 -12 -17 -13 -20 -3 -3 7 3 17 13 22 11 7 15 17 11 33 -8 33 3 55 28 55 32 0 53 17 40 30 -9 9 -14 9 -18 1 -10 -16 -35 -14 -52 4 -14 13 -14 16 0 21 9 3 13 11 10 16 -4 6 2 8 15 3 16 -5 20 -3 15 9 -3 9 -9 15 -13 15 -3 -1 -15 -4 -27 -6z m-154 -433 c0 -5 -7 -10 -15 -10 -8 0 -15 5 -15 10 0 6 7 10 15 10 8 0 15 -4 15 -10z"/> <path d="M2586 3981 c-9 -14 12 -24 45 -23 16 0 29 -4 29 -9 0 -5 9 -9 20 -9 20 0 20 1 3 19 -20 21 -88 37 -97 22z"/> <path d="M1970 3970 c-12 -8 -11 -10 8 -10 12 0 22 5 22 10 0 13 -11 13 -30 0z"/> <path d="M2730 3958 c19 -6 42 -13 50 -16 8 -3 20 -6 25 -7 6 -1 26 -5 45 -10 l35 -10 -50 -5 c-46 -6 -48 -7 -22 -14 38 -11 84 8 68 28 -7 8 -8 16 -4 18 4 3 3 4 -3 2 -6 -1 -44 4 -85 12 -84 16 -111 17 -59 2z"/> <path d="M2974 3935 c11 -8 26 -15 33 -15 7 0 13 -4 13 -9 0 -5 7 -11 15 -15 8 -3 15 0 15 7 0 7 -18 20 -40 30 -49 21 -62 21 -36 2z"/> <path d="M2120 3923 c-29 -4 -61 -43 -36 -43 8 0 18 5 21 10 4 7 11 8 18 2 7 -6 30 -20 51 -32 33 -18 42 -20 50 -8 8 9 21 12 41 7 54 -12 107 -10 102 4 -2 6 -16 11 -31 10 -14 -1 -26 2 -26 8 0 5 8 9 17 9 15 0 14 2 -4 15 -30 21 -143 31 -154 14 -6 -10 -9 -11 -9 -1 0 6 -3 11 -7 11 -5 -1 -19 -4 -33 -6z"/> <path d="M2723 3910 c-12 -11 -27 -20 -33 -20 -20 0 -9 -18 18 -28 53 -21 89 -24 89 -8 0 11 -8 13 -28 9 -15 -3 -35 0 -46 6 -10 6 -13 11 -5 11 7 0 11 4 7 9 -7 12 31 25 46 15 7 -4 10 -1 7 7 -7 22 -32 22 -55 -1z"/> <path d="M3133 3895 c16 -9 31 -14 35 -11 8 9 0 14 -33 21 l-30 6 28 -16z"/> <path d="M3182 3875 c-2 -30 12 -40 28 -20 10 12 10 18 0 30 -18 21 -25 19 -28 -10z"/> <path d="M3229 3877 c22 -53 43 -87 57 -87 8 0 14 -6 14 -14 0 -8 7 -16 15 -20 8 -3 15 -13 15 -22 0 -9 16 -32 35 -51 19 -19 35 -40 35 -48 0 -8 6 -12 14 -9 17 6 50 -34 76 -93 10 -24 22 -43 25 -43 10 0 1 44 -10 53 -6 5 -4 7 4 5 8 -3 17 -20 19 -39 2 -19 7 -39 12 -44 5 -6 10 -24 12 -40 2 -17 8 -33 13 -37 13 -10 13 -31 0 -40 -6 -5 -3 -8 8 -8 9 0 17 -7 17 -15 0 -17 34 -37 45 -27 5 4 5 1 1 -5 -4 -7 -3 -13 2 -13 5 0 12 -9 15 -20 3 -13 0 -20 -9 -20 -8 0 -14 -4 -14 -10 0 -5 7 -10 15 -10 8 0 15 -4 15 -10 0 -5 -6 -10 -12 -10 -9 0 -8 -3 2 -10 8 -5 15 -22 16 -39 1 -16 9 -44 18 -62 20 -40 20 -39 -1 -39 -17 -1 -17 -1 0 -14 18 -14 24 -32 7 -21 -13 8 -13 -38 -1 -50 6 -6 12 -22 15 -38 2 -15 7 -36 11 -46 3 -11 1 -22 -5 -26 -14 -8 -13 -36 1 -32 6 1 13 -8 15 -19 3 -21 2 -21 -26 4 -17 15 -30 32 -30 39 0 7 -4 13 -10 13 -5 0 -7 8 -3 18 4 12 3 14 -6 6 -8 -8 -7 -19 6 -45 9 -19 22 -38 29 -44 6 -5 14 -30 17 -55 3 -25 3 -39 0 -31 -8 19 -45 55 -60 57 -13 2 -7 -23 13 -46 7 -9 20 -32 29 -53 8 -20 19 -37 24 -37 13 0 20 -36 11 -51 -7 -10 -11 -10 -24 0 -9 8 -16 18 -16 23 0 5 -7 25 -17 46 -9 20 -15 40 -15 45 3 12 -33 8 -46 -5 -19 -19 -14 -28 13 -28 14 0 25 -4 25 -10 0 -22 -47 -10 -61 16 -7 14 -26 37 -42 50 -31 26 -31 42 0 29 10 -5 33 -9 51 -10 25 -1 32 2 32 16 0 10 -4 21 -10 24 -5 3 -10 2 -10 -3 0 -5 -13 -9 -30 -8 -17 1 -30 7 -30 14 0 8 -8 10 -24 6 -19 -4 -31 4 -65 42 -45 52 -50 64 -23 64 17 0 72 -54 72 -71 0 -10 33 -12 43 -2 4 3 -2 16 -13 28 -12 12 -20 27 -18 33 2 7 -10 23 -27 37 l-30 25 33 -3 c35 -3 44 -13 78 -90 9 -22 24 -41 33 -45 9 -3 19 -10 23 -16 5 -8 10 -8 18 0 8 8 8 15 -2 25 -7 8 -19 26 -27 42 -8 15 -20 27 -27 27 -6 0 -11 11 -10 25 1 30 4 31 23 8 13 -16 13 -16 3 4 -5 12 -15 25 -20 28 -6 4 -7 11 -4 17 4 7 2 8 -4 4 -7 -4 -12 -15 -13 -24 0 -11 -2 -12 -6 -4 -2 6 -9 9 -15 6 -5 -3 -4 3 4 15 7 12 16 21 21 21 12 0 -5 54 -20 63 -17 10 -17 30 0 22 6 -3 2 2 -10 11 -13 9 -23 22 -23 28 0 6 4 5 9 -3 6 -9 11 -10 15 -2 4 6 2 11 -4 11 -6 0 -9 4 -6 9 4 5 -4 7 -16 4 -19 -4 -20 -3 -8 6 12 9 10 11 -10 11 -16 0 -29 8 -35 22 -6 13 -19 25 -30 27 -19 3 -19 3 -2 -17 10 -11 14 -23 9 -26 -14 -8 -31 16 -29 42 1 16 6 21 17 17 11 -5 12 -3 4 5 -9 9 -17 8 -33 -2 -24 -15 -26 -28 -8 -48 9 -11 8 -11 -8 0 -11 8 -26 23 -33 33 -8 10 -24 28 -37 40 -13 12 -41 38 -61 57 -21 19 -42 34 -47 32 -4 -1 -6 1 -3 6 6 11 -30 42 -49 42 -20 0 -28 -17 -11 -23 8 -3 16 -1 19 6 2 6 6 1 9 -11 5 -19 3 -22 -13 -17 -12 4 -19 2 -19 -7 0 -7 -11 0 -25 15 -21 22 -65 38 -65 23 0 -10 91 -56 100 -51 6 4 13 -1 16 -9 3 -9 10 -16 16 -16 5 0 6 5 3 10 -3 6 1 10 9 10 9 0 21 -9 28 -20 7 -11 17 -20 23 -20 11 -1 75 -56 75 -66 0 -4 15 -23 33 -43 17 -20 43 -52 57 -71 14 -18 31 -38 38 -44 7 -6 19 -17 27 -23 7 -7 18 -13 24 -13 6 0 11 -9 11 -20 0 -25 -17 -26 -23 -2 -3 12 -5 10 -6 -7 -1 -24 -1 -24 -23 5 -13 16 -30 36 -38 45 -52 56 -70 78 -70 83 0 3 -11 17 -25 32 -14 15 -25 33 -25 40 0 8 -5 14 -11 14 -6 0 -20 11 -31 25 -11 14 -25 25 -33 25 -7 0 -50 20 -95 46 -45 25 -85 43 -88 40 -3 -3 -11 -1 -19 5 -7 6 -13 7 -13 2 0 -15 116 -124 124 -116 4 4 4 0 1 -10 -5 -12 0 -19 19 -27 18 -7 24 -14 20 -27 -5 -14 -4 -15 4 -4 6 8 15 10 22 6 10 -6 9 -11 -5 -21 -10 -8 -15 -17 -11 -21 4 -5 14 0 21 11 12 16 10 23 -21 60 -20 24 -45 49 -57 57 -11 8 -37 29 -56 47 l-36 34 35 -19 c19 -10 63 -46 98 -80 57 -56 66 -61 88 -53 17 7 23 7 19 0 -3 -6 -1 -10 4 -10 6 0 11 -9 11 -21 0 -13 4 -18 13 -13 6 4 9 4 5 0 -7 -8 0 -18 39 -61 13 -13 19 -26 14 -29 -8 -5 -57 46 -96 99 -12 16 -14 17 -15 4 0 -9 12 -28 27 -43 18 -19 23 -30 16 -37 -8 -8 -16 -4 -27 13 -14 19 -18 21 -26 8 -5 -8 -12 -11 -16 -7 -4 3 -1 13 5 21 7 8 10 20 6 26 -9 15 -27 1 -21 -17 4 -8 2 -11 -5 -7 -8 4 -9 -1 -4 -17 6 -22 5 -22 -19 6 -14 17 -25 27 -26 22 0 -13 52 -67 61 -62 4 3 11 0 15 -6 4 -8 3 -9 -4 -5 -18 11 -14 -3 9 -32 14 -18 17 -28 8 -31 -6 -2 -16 4 -21 13 -5 9 -16 16 -23 16 -8 0 -15 6 -15 13 0 7 -9 18 -20 25 -11 6 -18 17 -16 24 1 7 1 9 -2 5 -2 -5 -14 0 -26 10 -11 9 -15 11 -8 3 19 -22 14 -35 -6 -17 -10 10 -22 14 -26 10 -4 -4 -10 -2 -14 4 -18 28 -51 69 -86 106 -30 34 -37 37 -33 20 7 -31 -7 -29 -21 2 -15 32 -15 45 -1 25 8 -11 12 -12 15 -3 3 7 28 -11 60 -45 30 -31 54 -52 54 -45 0 11 -95 110 -151 158 l-24 20 18 -21 c23 -28 22 -41 -3 -19 -11 10 -23 16 -26 12 -3 -3 -21 5 -40 18 -32 22 -66 30 -149 37 -19 2 -29 8 -27 16 1 8 -2 11 -8 7 -6 -3 -8 -11 -5 -16 4 -5 4 -9 2 -9 -3 0 -21 -7 -41 -15 -32 -14 -36 -14 -36 0 0 8 9 15 19 15 11 0 23 5 26 11 12 18 -66 -2 -103 -27 -38 -26 -72 -31 -72 -11 0 7 -9 13 -20 14 -25 2 -25 -5 -2 -24 9 -8 11 -11 3 -7 -8 4 -27 7 -42 6 -30 -1 -39 12 -16 22 6 3 1 3 -13 0 -26 -6 -61 -33 -45 -35 6 0 19 -3 30 -6 11 -3 32 -5 48 -6 15 0 27 -5 27 -10 0 -7 4 -7 12 1 7 7 23 12 37 12 13 0 40 6 59 13 28 9 36 9 39 0 4 -10 10 -10 25 -2 12 6 18 7 14 1 -4 -6 10 -9 37 -8 23 2 57 -2 76 -8 26 -8 36 -7 39 2 2 7 13 12 25 12 20 0 20 -1 2 -13 -11 -9 -15 -19 -10 -27 5 -9 14 -5 31 16 13 15 27 24 31 21 3 -4 3 -7 -2 -7 -4 0 -2 -6 4 -14 10 -12 8 -13 -8 -9 -12 3 -21 1 -21 -6 0 -6 6 -11 13 -11 20 0 127 -60 127 -71 0 -5 9 -9 20 -9 11 0 20 -6 20 -12 0 -7 36 -49 80 -93 44 -44 80 -86 80 -94 0 -8 6 -11 16 -7 22 8 54 -21 54 -48 1 -20 1 -20 11 -3 10 17 13 16 35 -15 14 -18 29 -34 34 -34 6 -1 12 -2 15 -3 3 0 1 -9 -4 -19 -8 -14 -5 -29 10 -56 11 -21 18 -43 15 -49 -3 -9 -5 -8 -5 1 -1 6 -5 12 -11 12 -5 0 2 -17 16 -37 38 -56 74 -130 74 -152 0 -11 4 -21 9 -23 15 -5 82 -221 71 -228 -13 -8 48 -90 67 -90 11 0 7 7 -11 21 -15 12 -25 24 -22 27 3 3 15 -3 26 -13 11 -10 20 -15 20 -10 0 4 7 2 15 -5 12 -10 15 -10 15 1 1 10 4 8 11 -3 13 -22 25 -23 33 -2 4 11 2 15 -8 11 -19 -7 -26 13 -13 34 18 29 43 3 40 -40 l-2 -36 8 33 c11 41 18 49 33 34 18 -18 28 -14 28 10 0 27 -37 68 -56 61 -8 -3 -14 1 -14 11 0 9 8 16 20 16 11 0 20 -4 20 -10 0 -20 21 -9 30 15 7 17 17 25 34 25 14 0 28 5 32 11 8 13 -14 29 -31 23 -6 -3 -20 5 -30 16 -17 19 -17 22 -3 36 14 14 16 13 22 -11 6 -22 9 -25 21 -15 11 9 12 17 5 30 -7 13 -7 21 0 25 16 10 11 28 -6 21 -13 -5 -14 -1 -9 24 6 27 6 198 1 305 -3 52 -16 107 -28 122 -15 19 -2 43 23 43 l22 0 -22 24 c-13 14 -20 29 -17 34 3 5 -2 25 -11 43 -9 18 -18 58 -19 89 -4 78 -11 97 -36 105 -13 4 -26 7 -29 6 -4 0 -10 16 -14 37 -3 20 -12 46 -19 57 -8 11 -17 40 -21 63 -4 24 -14 46 -22 49 -11 5 -12 8 -2 14 10 6 9 16 -6 48 -10 23 -22 41 -27 41 -4 0 -8 -2 -8 -5 0 -9 25 -50 35 -57 7 -5 7 -8 0 -8 -23 0 -52 31 -75 79 -15 32 -30 51 -40 51 -10 0 -28 16 -41 35 -13 19 -29 35 -36 35 -16 0 -78 81 -76 100 2 9 0 10 -3 3 -7 -17 -25 -17 -19 0 3 6 -4 18 -15 24 -18 12 -19 11 -11 -10z m-579 -555 c0 -13 -12 -22 -22 -16 -10 6 -1 24 13 24 5 0 9 -4 9 -8z m221 -49 c-11 -5 -11 -7 0 -14 7 -4 10 -11 6 -15 -7 -7 -37 13 -37 25 0 4 10 7 23 8 12 0 16 -1 8 -4z m362 -89 c-6 -17 -19 -10 -33 16 -10 18 -9 19 14 9 14 -7 22 -17 19 -25z m269 -116 c22 -32 38 -66 36 -75 -3 -13 -18 4 -52 54 -27 40 -53 70 -59 66 -6 -3 -7 -1 -3 6 14 23 39 6 78 -51z m-240 -20 c11 -13 26 -32 34 -43 13 -17 16 -18 24 -5 7 11 5 16 -8 19 -19 4 -33 21 -26 33 9 13 24 9 24 -7 0 -14 17 -20 47 -16 7 1 17 -8 23 -19 7 -13 7 -20 0 -20 -5 0 -10 -5 -10 -11 0 -6 8 -9 18 -7 9 2 23 -3 30 -12 12 -13 13 -12 7 5 -5 15 -3 17 6 8 8 -8 7 -18 -7 -42 -23 -39 -41 -46 -54 -20 -9 15 -7 21 5 25 8 3 22 3 31 0 14 -5 15 -4 4 9 -15 18 -55 21 -44 3 5 -7 2 -9 -9 -5 -12 4 -15 1 -11 -11 3 -9 -10 1 -30 23 -20 22 -36 36 -36 30 1 -14 91 -110 104 -110 6 0 11 -8 11 -17 0 -9 4 -20 8 -24 4 -4 7 -20 7 -35 0 -19 8 -34 25 -45 14 -9 25 -23 25 -32 0 -8 2 -13 5 -10 3 3 22 -11 43 -31 21 -20 60 -56 88 -81 27 -25 53 -53 57 -62 3 -10 12 -18 18 -18 7 0 8 5 3 13 -5 7 1 1 13 -13 44 -48 17 -47 -37 2 -14 13 -36 32 -49 43 -38 32 -14 -5 42 -63 50 -54 61 -84 27 -79 -29 5 -64 41 -90 95 -12 26 -37 61 -54 78 -43 42 -76 86 -71 95 3 4 -20 31 -51 60 -30 30 -65 71 -76 91 -12 20 -25 35 -30 32 -4 -3 -8 0 -8 5 0 6 9 11 21 11 15 0 19 -5 15 -15 -3 -8 -1 -15 4 -15 6 0 10 7 10 15 0 19 -38 39 -70 37 -14 -1 -20 1 -13 4 7 3 9 12 6 20 -3 8 0 14 6 14 6 0 11 -4 11 -10 0 -5 5 -10 12 -10 6 0 3 10 -8 23 -11 12 -26 31 -34 41 -14 18 -13 19 3 13 17 -6 16 -4 -2 22 -33 45 -24 59 11 19z m-135 -44 c-4 -4 -14 1 -22 12 -22 29 -18 41 7 17 12 -13 19 -26 15 -29z m38 -13 c-6 -5 -44 41 -44 54 0 6 11 -3 24 -20 13 -16 22 -31 20 -34z m37 -28 c22 -20 24 -35 3 -26 -9 3 -13 8 -11 11 3 3 -2 11 -12 18 -9 7 -13 14 -8 14 5 0 18 -7 28 -17z m143 -198 c19 -30 35 -61 35 -69 0 -9 23 -63 50 -120 37 -78 54 -104 65 -100 20 8 19 -13 -1 -24 -13 -7 -11 -15 16 -55 17 -26 35 -47 40 -47 5 0 9 -8 9 -17 0 -10 1 -31 4 -48 2 -16 -1 -33 -7 -37 -12 -8 -80 127 -73 146 2 6 -7 28 -20 50 -14 21 -31 55 -38 75 -7 20 -25 63 -39 96 -15 33 -32 71 -38 85 -6 14 -22 46 -35 73 -33 64 -11 60 32 -8z m101 -123 c6 -4 14 -17 18 -30 4 -12 12 -20 17 -17 5 4 9 -1 9 -10 0 -11 5 -15 14 -12 12 5 30 -16 23 -27 -1 -1 4 -10 12 -19 7 -10 11 -17 8 -17 -3 0 -13 -3 -23 -7 -12 -4 -15 -3 -10 6 5 8 0 20 -13 32 -12 11 -28 31 -37 44 -9 14 -21 22 -27 18 -6 -3 -7 -1 -3 6 4 6 2 18 -4 26 -13 16 -3 20 16 7z m114 -177 c-7 -8 -8 -20 -4 -27 5 -10 4 -11 -7 0 -19 18 -33 15 -15 -4 9 -8 16 -20 16 -26 0 -6 -9 -1 -20 12 -23 26 -21 46 3 44 9 -1 16 1 15 5 -2 16 3 22 12 16 8 -5 7 -11 0 -20z m37 -47 c-3 -11 0 -18 9 -18 8 0 14 5 14 11 0 5 4 8 9 5 5 -3 7 -24 4 -46 -5 -36 -3 -40 21 -50 25 -9 37 -40 16 -40 -5 0 -7 8 -3 18 5 14 3 15 -8 5 -16 -15 -33 -17 -24 -3 8 13 -28 0 -37 -14 -5 -7 -8 -4 -8 7 0 9 6 17 13 17 8 0 7 3 -3 9 -8 6 -18 7 -22 5 -4 -3 -8 0 -8 6 0 8 9 10 23 6 33 -8 31 17 -3 49 -19 19 -26 33 -22 51 4 20 7 22 19 12 8 -6 12 -20 10 -30z m109 -13 c-11 -8 -25 -15 -30 -15 -6 0 -2 7 8 15 11 8 25 15 30 15 6 0 2 -7 -8 -15z"/> <path d="M3334 2995 c-13 -9 -16 -17 -9 -23 6 -6 17 -3 28 8 23 22 7 35 -19 15z"/> <path d="M3350 2850 c0 -5 9 -24 20 -42 17 -29 19 -29 16 -7 -2 13 -7 32 -11 42 -8 18 -25 23 -25 7z"/> <path d="M1992 3865 c-10 -21 -9 -25 3 -25 9 0 15 10 15 25 0 14 -2 25 -3 25 -2 0 -9 -11 -15 -25z"/> <path d="M2610 3879 c0 -7 -16 -8 -45 -3 -38 5 -45 4 -45 -10 0 -9 5 -16 10 -16 6 0 10 5 10 10 0 15 26 12 40 -5 7 -8 24 -15 39 -15 20 0 23 2 11 10 -12 8 -10 10 10 11 17 1 19 3 8 6 -10 2 -18 9 -18 14 0 5 -4 9 -10 9 -5 0 -10 -5 -10 -11z"/> <path d="M2900 3879 c-24 -7 -23 -7 7 -8 17 -1 33 -4 36 -8 2 -5 2 -2 1 5 -4 16 -2 16 58 -13 58 -28 58 -28 58 -17 0 10 -99 50 -120 49 -8 0 -26 -4 -40 -8z"/> <path d="M2420 3873 c0 -11 70 -26 79 -18 8 9 -6 16 -43 22 -21 3 -36 2 -36 -4z"/> <path d="M2810 3861 c0 -10 118 -36 127 -27 3 3 -5 6 -18 6 -13 0 -33 7 -43 15 -21 16 -66 20 -66 6z"/> <path d="M2140 3850 c0 -5 -9 -10 -20 -10 -27 0 -25 -13 5 -26 28 -14 50 2 39 30 -7 18 -24 22 -24 6z"/> <path d="M3084 3845 c11 -8 27 -13 35 -10 22 6 55 -21 48 -39 -4 -10 -1 -13 7 -10 7 3 21 -6 30 -20 9 -15 23 -26 31 -26 8 0 15 -4 15 -9 0 -5 19 -28 43 -50 34 -33 39 -43 27 -50 -8 -6 -18 -7 -22 -5 -4 3 -8 0 -8 -5 0 -15 23 -14 38 1 9 9 23 0 62 -43 27 -29 49 -49 50 -43 0 6 -9 19 -21 30 -12 10 -28 32 -36 49 -21 41 -73 95 -161 166 -40 32 -68 59 -61 59 29 0 0 9 -46 15 -46 5 -49 5 -31 -10z"/> <path d="M2016 3831 c-13 -14 -15 -24 -8 -36 7 -14 11 -12 22 14 16 38 9 48 -14 22z"/> <path d="M2657 3828 c-16 -12 -9 -14 57 -13 79 0 81 9 6 20 -31 4 -51 2 -63 -7z"/> <path d="M3347 3829 c6 -6 9 -17 7 -24 -3 -7 2 -15 11 -19 11 -4 14 -2 9 6 -5 8 -2 9 9 5 10 -3 17 -2 17 3 0 6 -6 10 -14 10 -8 0 -16 7 -20 15 -3 8 -11 15 -18 15 -9 0 -9 -3 -1 -11z"/> <path d="M2540 3820 c0 -5 11 -10 24 -10 13 0 26 -5 28 -12 3 -7 9 -8 18 -3 10 6 9 11 -5 22 -22 15 -65 18 -65 3z"/> <path d="M2960 3823 c0 -15 19 -37 26 -31 3 4 -1 14 -10 23 -9 9 -16 13 -16 8z"/> <path d="M3120 3820 c0 -6 7 -13 15 -17 24 -9 27 1 5 15 -13 8 -20 8 -20 2z"/> <path d="M1984 3796 c7 -22 -11 -49 -27 -39 -6 4 -8 -2 -4 -18 4 -13 7 -33 7 -44 0 -16 2 -17 9 -6 6 9 6 22 0 33 -12 22 -6 23 15 3 9 -9 17 -11 21 -5 3 5 1 10 -4 10 -6 0 -11 10 -11 23 0 18 2 19 10 7 16 -25 10 3 -6 30 -9 15 -13 17 -10 6z"/> <path d="M2167 3804 c-3 -3 -24 -7 -46 -9 -22 -2 -44 -6 -50 -9 -5 -3 -11 -1 -13 5 -2 7 -12 -1 -22 -16 -21 -31 -14 -45 11 -23 10 9 24 13 31 11 6 -3 12 0 12 5 0 6 12 9 28 7 32 -5 84 13 76 26 -6 10 -18 12 -27 3z"/> <path d="M2208 3782 c-17 -25 -66 -36 -85 -21 -13 11 -14 8 -6 -27 4 -21 8 -56 8 -76 0 -21 3 -38 8 -38 8 0 10 10 11 70 1 45 1 45 39 48 28 2 37 -1 37 -12 0 -8 -5 -18 -10 -21 -20 -12 1 -23 45 -23 49 0 85 -9 85 -22 0 -14 -26 -19 -62 -11 -18 4 -42 4 -53 0 -17 -6 -15 -8 10 -8 17 -1 44 -5 60 -9 41 -11 81 0 77 21 -2 9 2 17 8 17 5 0 10 4 10 8 0 11 -68 32 -101 32 -27 0 -69 25 -69 41 0 5 11 7 24 3 27 -6 66 3 66 15 0 7 -65 31 -83 31 -3 0 -12 -8 -19 -18z"/> <path d="M2665 3793 c17 -2 37 -7 45 -10 23 -9 120 -12 120 -3 0 12 -57 20 -129 19 -36 -1 -52 -4 -36 -6z"/> <path d="M2900 3779 c14 -6 41 -11 59 -10 19 0 43 -6 52 -15 10 -9 20 -11 23 -6 8 13 -39 30 -104 36 -46 5 -51 4 -30 -5z"/> <path d="M2828 3752 c-16 -2 -28 -8 -28 -13 0 -5 -7 -9 -15 -9 -8 0 -15 -4 -15 -10 0 -15 23 -12 46 5 26 20 41 19 47 -5 3 -12 14 -20 26 -20 28 0 27 14 -1 28 -13 6 -17 11 -10 11 6 1 12 5 12 10 0 6 -8 9 -17 8 -10 -1 -30 -3 -45 -5z"/> <path d="M3204 3695 c54 -54 69 -64 84 -56 16 10 16 10 -1 11 -10 0 -15 4 -12 10 3 5 0 7 -9 4 -9 -3 -21 6 -32 25 -10 16 -21 28 -24 26 -4 -2 -17 7 -28 20 -12 14 -27 25 -33 25 -7 0 18 -29 55 -65z"/> <path d="M2049 3722 c-15 -15 -29 -36 -33 -47 -5 -18 -4 -18 13 3 18 20 21 21 35 6 15 -14 21 -35 17 -57 -1 -5 4 -7 11 -5 18 6 9 129 -10 127 -4 0 -19 -12 -33 -27z"/> <path d="M3056 3741 c10 -10 72 -26 63 -17 -4 4 -21 11 -39 16 -19 5 -29 6 -24 1z"/> <path d="M2968 3723 c13 -3 26 -12 29 -21 8 -21 33 -41 51 -42 7 0 33 -14 58 -31 41 -28 64 -31 64 -8 0 5 -6 9 -14 9 -8 0 -17 8 -19 18 -4 15 -5 15 -6 -2 -1 -14 -4 -16 -13 -8 -7 6 -35 22 -63 36 -41 21 -46 26 -25 26 20 1 18 4 -15 15 -22 8 -47 14 -55 13 -8 0 -5 -3 8 -5z"/> <path d="M2163 3698 c1 -21 4 -24 14 -16 15 12 18 22 4 13 -5 -3 -12 3 -14 12 -3 10 -4 6 -4 -9z"/> <path d="M2800 3699 c0 -6 6 -9 13 -6 6 2 17 -3 23 -11 9 -13 12 -13 17 2 4 10 3 15 -3 11 -6 -3 -10 -1 -10 4 0 6 -9 11 -20 11 -11 0 -20 -5 -20 -11z"/> <path d="M2924 3699 c-3 -5 7 -9 22 -9 15 0 24 3 20 7 -11 11 -35 12 -42 2z"/> <path d="M3076 3695 c10 -8 24 -14 29 -14 6 0 1 6 -9 14 -11 8 -24 15 -30 15 -5 0 -1 -7 10 -15z"/> <path d="M3120 3688 c0 -15 88 -73 108 -71 6 0 12 -7 12 -16 0 -9 12 -24 25 -34 20 -14 24 -15 19 -2 -3 8 -10 15 -16 15 -5 0 -7 4 -4 9 8 12 -56 77 -71 73 -8 -2 -13 7 -13 20 0 17 -3 19 -12 10 -7 -7 -17 -8 -30 -1 -13 7 -18 6 -18 -3z"/> <path d="M1401 3661 c-11 -11 -22 -17 -25 -13 -3 3 -6 -3 -6 -14 0 -16 -2 -17 -10 -4 -11 17 -13 10 -4 -13 5 -15 24 -1 63 46 18 23 5 21 -18 -2z"/> <path d="M1901 3663 c7 -10 15 -20 16 -22 2 -2 3 5 3 17 0 14 -6 22 -16 22 -14 0 -15 -3 -3 -17z"/> <path d="M1930 3665 c0 -8 5 -15 11 -15 6 0 8 -9 4 -22 -5 -18 -4 -20 4 -7 11 17 4 59 -10 59 -5 0 -9 -7 -9 -15z"/> <path d="M2765 3671 c-3 -6 -3 -11 2 -12 4 -1 15 -2 23 -3 8 -2 23 -3 33 -4 10 -1 16 -6 13 -11 -3 -5 9 -12 27 -15 19 -3 43 -15 55 -26 12 -11 26 -20 32 -20 10 0 117 -54 158 -80 26 -18 30 -42 5 -34 -10 3 -5 -5 12 -20 17 -14 35 -26 40 -26 6 0 5 4 -1 8 -6 4 -15 17 -19 30 -7 23 -6 23 14 5 12 -10 27 -18 34 -18 7 0 11 -9 9 -19 -2 -10 1 -15 6 -12 6 3 12 -1 16 -9 8 -21 -12 -29 -30 -11 -21 22 -52 22 -34 1 7 -8 17 -15 22 -15 5 0 25 -12 44 -26 19 -15 37 -25 40 -22 2 3 -7 13 -21 22 -14 9 -23 21 -19 27 3 6 11 3 19 -8 12 -15 16 -16 27 -4 7 8 8 11 2 8 -7 -4 -20 6 -30 21 -19 28 -21 32 -23 57 0 8 -4 14 -8 13 -5 -1 -32 22 -60 50 -54 53 -78 66 -66 36 5 -14 2 -16 -23 -10 -16 4 -40 15 -54 25 -14 10 -52 31 -85 46 -33 16 -62 31 -65 35 -3 4 -17 10 -32 13 -14 4 -33 9 -41 13 -8 3 -18 1 -22 -5z"/> <path d="M2896 3672 c-3 -6 0 -14 7 -20 20 -16 83 -33 99 -27 9 4 19 2 23 -4 3 -6 15 -11 26 -11 11 0 17 5 14 10 -4 6 -11 8 -16 5 -5 -4 -9 -2 -9 3 0 6 -17 13 -37 16 -21 3 -45 8 -55 9 -9 2 -23 9 -31 16 -9 7 -18 8 -21 3z"/> <path d="M1455 3655 c-44 -33 -75 -60 -75 -67 0 -16 34 1 46 23 7 13 13 18 14 11 0 -10 5 -8 18 4 9 10 15 20 14 22 -2 3 2 9 10 13 7 5 9 9 3 9 -5 -1 -19 -7 -30 -15z"/> <path d="M2325 3609 c-4 -5 -2 -9 2 -9 5 0 18 -7 29 -16 16 -13 16 -15 2 -10 -10 3 -20 1 -23 -3 -6 -10 24 -25 43 -22 6 1 12 -3 12 -9 0 -5 3 -9 8 -8 4 1 28 -8 54 -20 25 -11 56 -18 67 -15 24 6 28 23 6 23 -9 0 -27 11 -41 25 -14 14 -32 25 -41 25 -8 0 -37 11 -64 24 -27 14 -51 21 -54 15z"/> <path d="M2790 3600 c0 -20 8 -24 48 -20 15 1 22 -4 23 -17 0 -16 1 -16 9 2 13 29 12 35 -5 29 -8 -4 -15 -1 -15 6 0 7 -7 10 -16 6 -8 -3 -12 -2 -9 4 3 6 -3 10 -14 10 -14 0 -21 -6 -21 -20z"/> <path d="M1950 3595 c-10 -12 -10 -15 4 -15 9 0 16 7 16 15 0 8 -2 15 -4 15 -2 0 -9 -7 -16 -15z"/> <path d="M2678 3603 c-28 -7 -21 -17 23 -31 23 -7 57 -24 75 -38 18 -14 39 -24 46 -21 8 4 4 8 -10 13 -13 4 -21 12 -18 19 3 9 -3 11 -17 8 -16 -3 -18 -2 -8 5 9 7 10 12 2 16 -6 4 -9 12 -6 17 4 5 -2 9 -12 9 -10 0 -27 2 -38 4 -11 2 -28 2 -37 -1z"/> <path d="M3170 3585 c0 -18 13 -35 50 -62 28 -20 50 -41 50 -45 0 -15 -29 -8 -42 10 -7 10 -20 22 -28 27 -8 4 4 -12 26 -36 23 -24 50 -54 60 -66 19 -24 48 -30 59 -13 4 7 -2 9 -19 4 -23 -5 -25 -4 -20 12 4 11 4 16 -1 12 -10 -10 -38 19 -30 32 4 6 11 8 16 5 5 -4 9 -3 9 2 -1 9 -30 50 -30 41 0 -4 -18 10 -40 31 -22 20 -40 45 -40 54 0 9 -4 17 -10 17 -5 0 -10 -11 -10 -25z"/> <path d="M1896 3564 c-4 -14 -5 -28 -3 -31 3 -2 8 8 11 23 4 14 5 28 3 31 -3 2 -8 -8 -11 -23z"/> <path d="M1570 3574 c0 -13 53 -41 68 -36 19 6 14 19 -10 25 -13 2 -31 8 -40 12 -10 4 -18 3 -18 -1z"/> <path d="M1997 3572 c1 -3 -4 -14 -14 -24 -9 -10 -11 -18 -6 -18 18 0 37 30 26 39 -5 5 -8 6 -6 3z"/> <path d="M2893 3563 c-7 -2 -13 -11 -13 -19 0 -17 27 -19 32 -2 3 7 7 6 11 -5 4 -11 1 -17 -9 -17 -8 0 -13 -4 -10 -9 3 -5 14 -7 24 -4 10 2 35 -5 54 -17 20 -11 39 -17 42 -12 3 4 -10 14 -29 21 -19 7 -44 25 -55 42 -22 30 -25 31 -47 22z"/> <path d="M2980 3531 c0 -5 10 -11 23 -15 36 -9 42 -7 21 9 -21 16 -44 19 -44 6z"/> <path d="M3333 3512 c0 -22 3 -30 10 -23 7 7 7 18 0 33 -10 22 -11 21 -10 -10z"/> <path d="M1247 3495 c-9 -13 -23 -22 -31 -19 -7 3 -18 -1 -25 -9 -9 -12 -7 -14 14 -14 26 0 54 -27 55 -50 0 -7 -7 -13 -15 -13 -8 0 -15 -4 -15 -10 0 -5 -7 -10 -17 -10 -15 0 -15 1 0 18 26 29 21 43 -10 36 -39 -9 -43 -13 -42 -32 0 -11 3 -12 6 -4 8 19 23 14 23 -8 0 -11 -3 -20 -8 -20 -4 0 -13 -10 -21 -21 -11 -19 -11 -21 3 -16 10 4 16 1 16 -8 0 -25 -18 -25 -34 0 -21 31 -35 25 -34 -15 1 -30 11 -39 23 -20 4 6 11 5 19 -2 10 -10 7 -17 -15 -36 -29 -24 -52 -23 -42 3 7 19 -2 19 -32 -1 -16 -10 -23 -23 -21 -40 4 -34 13 -39 26 -15 13 25 33 28 26 4 -6 -21 65 -76 88 -67 8 3 17 1 20 -4 12 -19 -42 -19 -58 0 -20 23 -32 23 -54 -3 -9 -12 -25 -29 -34 -37 -12 -11 -15 -24 -11 -45 6 -30 6 -30 -18 -14 -31 22 -46 22 -27 0 30 -35 33 -47 10 -41 -18 5 -21 2 -18 -15 1 -12 8 -23 14 -25 7 -2 12 -8 12 -14 0 -5 -9 -6 -20 -3 -16 5 -20 2 -20 -18 0 -14 -7 -30 -15 -37 -8 -7 -15 -18 -15 -26 0 -7 -11 -24 -25 -38 -17 -17 -23 -32 -19 -50 3 -19 0 -26 -12 -26 -21 0 -42 -23 -49 -54 -3 -14 -8 -38 -11 -53 -3 -15 -12 -36 -21 -45 -8 -10 -13 -23 -10 -30 2 -7 -2 -42 -9 -78 -61 -279 -76 -517 -40 -631 21 -69 102 -227 146 -285 36 -48 120 -114 145 -114 6 0 16 5 22 11 8 8 15 5 24 -12 7 -13 12 -28 11 -32 -1 -5 4 -36 12 -70 8 -34 18 -78 22 -97 15 -80 109 -327 164 -430 24 -46 83 -114 185 -216 178 -178 314 -263 487 -304 73 -17 106 -19 288 -15 228 6 268 13 388 63 160 66 434 253 410 278 -3 2 -18 -7 -34 -21 -16 -14 -39 -28 -52 -31 -13 -4 -21 -11 -19 -18 5 -16 -116 -96 -146 -96 -7 0 -23 -9 -35 -20 -12 -11 -26 -20 -32 -20 -5 0 -10 -4 -10 -10 0 -5 -9 -10 -20 -10 -11 0 -20 -4 -20 -9 0 -5 -25 -15 -55 -22 -30 -7 -52 -16 -49 -21 3 -4 -2 -8 -10 -8 -8 0 -18 5 -21 10 -3 6 -16 10 -28 10 -21 -1 -21 -1 -4 -14 17 -13 16 -15 -11 -21 -16 -3 -33 -5 -38 -4 -5 1 -17 -1 -26 -5 -9 -4 -26 -3 -37 3 -14 8 -22 8 -26 1 -5 -8 -11 -7 -21 1 -8 6 -14 7 -14 2 0 -11 -241 -9 -260 2 -10 6 -12 4 -7 -8 4 -10 1 -15 -6 -12 -7 2 -25 6 -41 10 -23 5 -27 10 -23 31 3 19 2 22 -9 13 -8 -6 -14 -18 -14 -25 0 -10 -6 -11 -26 -4 -14 6 -37 10 -52 11 -15 0 -21 3 -14 6 23 9 12 20 -18 18 -17 -1 -30 2 -30 6 0 4 -13 10 -29 14 -16 3 -39 15 -52 26 -12 10 -28 19 -35 19 -7 0 -19 8 -26 19 -7 10 -17 19 -23 20 -5 1 -20 11 -33 21 -12 11 -27 20 -33 20 -5 0 -7 5 -4 10 3 6 2 10 -3 10 -5 0 -26 16 -46 35 -21 19 -42 35 -48 35 -6 0 -9 3 -5 6 3 3 -7 17 -24 31 -16 14 -29 31 -29 38 0 7 -11 20 -25 29 -14 9 -25 24 -25 32 0 10 -6 14 -15 10 -10 -3 -15 1 -15 13 0 11 -15 32 -34 49 -19 17 -32 33 -29 36 4 3 -1 12 -10 19 -11 7 -20 37 -26 81 -8 58 -15 73 -38 92 -15 12 -28 33 -29 46 -1 12 -6 34 -12 48 -29 70 -31 79 -19 84 9 3 9 5 0 5 -7 1 -13 12 -13 26 0 14 -3 25 -7 25 -5 0 -9 11 -9 25 -1 14 -5 38 -8 53 -5 20 -4 23 4 12 8 -13 10 -13 10 3 0 9 -4 17 -9 17 -5 0 -7 10 -3 22 3 14 2 19 -6 14 -8 -5 -12 2 -12 19 0 14 -4 24 -9 21 -5 -3 -11 1 -15 9 -3 8 -16 16 -28 16 -17 1 -18 2 -5 6 9 2 17 8 17 13 0 4 -8 7 -17 6 -14 -1 -17 5 -15 26 2 14 -1 29 -6 32 -4 3 -8 -12 -7 -34 1 -29 -3 -40 -16 -43 -10 -3 -18 -2 -17 2 2 19 -3 31 -12 26 -6 -3 -13 1 -16 9 -3 8 -14 18 -24 21 -10 3 -20 15 -23 26 -3 12 -10 18 -16 14 -6 -3 -11 1 -11 9 0 9 -4 16 -10 16 -5 0 -10 8 -10 17 0 14 5 12 25 -10 28 -29 48 -38 23 -9 -9 9 -17 24 -20 32 -2 8 -15 15 -29 15 -16 0 -24 6 -26 20 -1 16 -1 16 3 3 3 -10 10 -18 15 -18 12 0 -4 32 -25 50 -9 7 -16 17 -16 22 0 11 52 -18 81 -45 13 -12 19 -14 19 -5 1 8 7 5 15 -6 8 -11 15 -17 15 -13 0 4 15 -2 33 -13 33 -21 62 -27 53 -11 -4 5 -1 11 5 13 8 3 8 20 -1 63 -7 33 -14 76 -16 95 -2 19 -5 43 -6 52 -1 9 -6 14 -10 12 -4 -3 -8 0 -8 5 0 6 4 11 8 11 5 0 9 7 9 15 0 9 -5 14 -11 12 -21 -7 -17 -114 9 -240 5 -25 3 -27 -12 -18 -10 5 -30 21 -45 35 -15 14 -32 26 -39 26 -21 0 -120 62 -134 84 -21 31 -26 84 -9 90 8 3 14 11 14 18 0 10 -2 10 -9 0 -6 -10 -10 -7 -15 11 -9 37 -5 210 5 223 6 8 4 14 -6 18 -8 3 -15 11 -15 18 0 9 3 8 10 -2 5 -8 10 -13 11 -10 0 3 3 14 5 25 11 43 12 95 3 100 -5 4 -5 13 0 24 6 10 12 35 15 57 2 21 11 69 20 106 9 37 13 75 10 83 -4 10 -2 15 7 13 8 -2 15 7 17 22 2 14 6 32 9 40 4 8 7 18 8 23 2 4 4 9 5 12 1 3 3 9 4 14 1 13 46 54 46 43 0 -4 -5 -13 -12 -20 -9 -9 -8 -12 5 -12 9 0 17 -4 17 -9 0 -5 3 -17 7 -27 3 -10 2 -15 -3 -12 -5 3 -9 -9 -10 -28 0 -31 1 -33 25 -27 32 7 40 13 18 13 -20 0 -21 4 -8 28 13 24 23 53 26 77 2 11 17 46 34 78 28 52 28 57 11 57 -13 0 -22 -9 -26 -25 -8 -31 -25 -33 -20 -2 3 12 5 25 5 30 1 4 10 7 22 7 15 0 19 5 14 19 -3 11 1 25 10 34 8 9 14 20 13 24 -3 11 45 93 54 93 4 0 5 -7 2 -15 -4 -10 -2 -13 8 -10 7 3 22 -1 33 -10 18 -13 18 -16 4 -27 -9 -7 -19 -25 -23 -41 -3 -15 -15 -36 -26 -47 -27 -27 -26 -50 2 -50 17 0 19 -3 10 -12 -7 -7 -12 -31 -12 -55 0 -29 -4 -42 -12 -41 -7 2 -14 -7 -16 -19 -2 -13 -10 -23 -18 -23 -8 0 -12 -5 -9 -10 4 -6 -1 -22 -10 -37 -14 -21 -15 -27 -4 -34 8 -4 16 -3 20 3 4 6 15 8 25 4 12 -4 14 -10 8 -14 -6 -4 -14 -20 -17 -37 -6 -38 -13 -65 -22 -87 -4 -10 -3 -18 3 -18 6 0 8 -9 5 -21 -4 -13 -11 -18 -21 -14 -11 4 -12 2 -5 -7 15 -20 24 -50 13 -43 -6 3 -10 -3 -10 -13 0 -11 -7 -39 -15 -63 -12 -33 -13 -44 -3 -50 9 -6 17 8 27 49 7 31 18 60 23 63 6 4 7 20 3 37 -3 16 -2 33 3 36 6 3 15 29 22 57 7 28 19 53 27 56 8 3 12 12 9 19 -3 8 1 26 9 41 8 16 17 40 20 55 3 18 10 25 19 22 8 -3 17 0 22 7 4 8 3 10 -4 5 -7 -4 -12 -2 -12 3 0 6 5 11 11 11 6 0 8 9 4 20 -4 12 -2 20 5 20 6 0 8 10 4 24 -4 17 1 31 15 45 12 12 21 27 21 34 0 12 37 66 103 150 42 55 92 98 120 104 15 3 38 18 52 34 13 16 31 29 40 29 9 0 29 7 46 15 16 9 34 13 39 10 10 -6 60 15 60 26 0 4 9 5 20 2 14 -4 20 -1 18 8 -2 8 10 18 30 23 17 6 32 14 32 20 0 5 12 25 26 44 23 29 26 40 20 78 -5 39 -3 44 14 44 28 0 25 22 -7 51 -20 18 -25 20 -20 7 10 -28 -2 -46 -26 -40 -20 5 -20 3 6 -24 33 -33 17 -47 -17 -15 -26 24 -45 28 -26 6 7 -8 9 -15 4 -15 -5 0 -1 -5 9 -11 9 -6 15 -15 11 -20 -3 -5 0 -8 7 -7 7 2 15 -5 17 -16 3 -13 0 -16 -9 -11 -8 6 -10 4 -5 -4 5 -8 0 -14 -13 -18 -11 -3 -19 -9 -16 -13 5 -8 -24 -24 -38 -21 -5 1 -11 -8 -14 -19 -4 -13 -11 -19 -20 -16 -7 3 -16 -1 -19 -9 -4 -8 -10 -13 -14 -10 -5 3 -13 -3 -19 -12 -8 -14 -13 -15 -19 -6 -6 10 -12 10 -28 -2 -10 -8 -29 -15 -42 -15 -27 0 -72 -28 -72 -44 0 -6 -12 -13 -26 -14 -14 -1 -32 -9 -40 -17 -9 -8 -19 -15 -23 -15 -10 0 -78 -67 -115 -113 -30 -38 -36 -48 -73 -115 -41 -73 -81 -97 -69 -42 3 17 2 29 -2 26 -4 -3 -14 -1 -22 5 -11 6 -5 8 18 5 24 -2 30 0 22 8 -6 9 -4 19 6 34 8 12 12 27 9 32 -3 6 -2 10 3 10 5 0 12 14 14 30 3 21 0 30 -9 30 -8 0 -12 4 -9 9 4 5 1 11 -6 13 -10 4 -10 11 1 34 8 16 14 33 12 37 -1 5 7 11 17 14 11 2 26 17 33 31 7 15 22 35 34 44 20 17 20 17 -3 11 -13 -3 -27 -16 -32 -28 -10 -27 -33 -38 -48 -23 -16 16 4 49 25 41 11 -4 14 -3 9 5 -4 7 -1 15 8 18 9 3 13 10 10 15 -3 5 0 9 5 9 6 0 11 7 11 15 0 12 -3 12 -18 -2 -11 -10 -17 -21 -15 -25 2 -5 -7 -13 -20 -19 -14 -6 -31 -23 -38 -38 -13 -26 -13 -26 -17 -3 -2 13 2 30 8 38 9 10 9 14 1 14 -6 0 -11 -4 -11 -10 0 -5 -5 -10 -10 -10 -6 0 -5 8 2 20 7 11 17 20 23 20 6 0 12 12 13 26 1 15 13 37 27 50 14 12 22 29 19 37 -5 15 21 31 36 22 4 -2 10 9 14 26 4 21 10 28 18 23 7 -4 10 -3 5 1 -4 5 0 19 8 31 13 21 13 23 0 18 -18 -7 -20 7 -2 25 10 10 9 11 -4 6 -10 -4 -19 0 -22 9 -9 22 -19 19 -40 -9z m38 -25 c10 -31 -5 -45 -22 -21 -14 21 -11 41 7 41 5 0 11 -9 15 -20z m-65 -145 c0 -8 -4 -15 -10 -15 -5 0 -10 7 -10 15 0 8 5 15 10 15 6 0 10 -7 10 -15z m-30 -231 c0 -12 -42 -64 -51 -64 -16 0 -10 25 11 48 20 21 40 29 40 16z m-210 -385 c0 -10 -7 -19 -15 -19 -17 0 -20 16 -5 25 6 4 7 11 4 17 -4 7 -2 8 4 4 7 -4 12 -16 12 -27z m175 -6 c-4 -10 -9 -27 -12 -38 -3 -11 -9 -30 -15 -42 -9 -18 -14 -20 -28 -10 -18 11 -17 37 2 37 5 0 6 -4 3 -10 -3 -5 -1 -10 4 -10 6 0 11 8 11 18 0 23 23 72 34 72 4 0 5 -8 1 -17z"/> <path d="M1990 3506 c0 -7 -7 -19 -15 -26 -16 -13 -21 -40 -7 -40 5 0 18 9 30 20 12 12 23 16 27 10 3 -6 1 -10 -5 -10 -7 0 -5 -9 4 -22 9 -12 16 -30 16 -40 0 -22 28 -24 36 -3 4 8 10 12 15 9 5 -3 16 1 24 9 12 13 12 17 1 26 -11 9 -18 8 -29 -4 -21 -20 -24 -19 -29 10 -4 20 -1 25 15 25 43 0 -8 17 -57 19 -12 1 -16 6 -12 16 3 8 1 15 -4 15 -6 0 -10 -6 -10 -14z"/> <path d="M1908 3458 c5 -33 13 -35 30 -8 15 25 9 39 -16 37 -14 -1 -17 -8 -14 -29z"/> <path d="M2845 3481 c7 -11 1 -13 -33 -8 -24 4 -43 3 -47 -3 -3 -5 -15 -10 -26 -10 -24 0 -24 -9 -1 -26 23 -18 33 -17 26 0 -4 11 1 14 23 11 15 -2 34 -4 41 -4 8 -1 10 -6 6 -13 -4 -7 -4 -10 1 -6 4 4 14 0 21 -10 7 -9 15 -14 19 -11 3 4 -6 19 -20 33 -31 31 -15 34 31 6 37 -24 74 -33 74 -20 0 13 -34 30 -59 30 -11 0 -30 10 -42 23 -12 12 -18 16 -14 8z"/> <path d="M2885 3480 c-4 -6 2 -10 12 -10 11 0 41 -14 67 -30 26 -17 51 -28 56 -25 5 3 13 -3 19 -12 6 -10 11 -14 11 -9 0 5 8 2 18 -6 18 -15 62 -22 62 -9 0 14 -48 52 -61 50 -27 -6 -89 12 -86 24 1 7 -6 11 -17 9 -12 -2 -16 1 -10 9 4 7 3 10 -4 5 -6 -3 -22 -2 -36 4 -16 6 -27 6 -31 0z"/> <path d="M3370 3468 c0 -16 5 -28 10 -28 13 0 13 20 0 40 -8 12 -10 9 -10 -12z"/> <path d="M2473 3473 c-7 -2 -13 -9 -13 -14 0 -6 5 -7 10 -4 6 3 10 1 10 -4 0 -6 -4 -11 -10 -11 -5 0 -10 -5 -10 -11 0 -5 10 -9 23 -7 15 2 22 -2 21 -12 -1 -12 8 -15 35 -12 l36 3 -31 -15 c-36 -16 -49 -32 -34 -41 5 -3 10 0 10 8 0 9 15 17 38 22 20 3 46 9 58 11 12 3 28 -1 37 -10 11 -11 25 -14 46 -10 43 9 39 21 -11 35 -24 6 -50 14 -58 19 -9 4 -42 13 -73 20 -35 8 -57 18 -57 27 0 13 -6 15 -27 6z"/> <path d="M3322 3440 c7 -11 16 -20 19 -20 4 0 5 9 2 20 -3 11 -12 20 -19 20 -12 0 -12 -4 -2 -20z"/> <path d="M2137 3412 c-29 -30 -35 -46 -15 -40 7 3 28 -6 47 -19 19 -13 40 -22 47 -19 7 3 15 -2 18 -10 7 -19 26 -18 26 1 0 13 3 13 20 3 29 -18 37 -1 12 25 -12 13 -22 30 -22 38 -1 9 -9 4 -23 -12 -18 -22 -26 -25 -44 -18 -27 10 -29 27 -6 44 15 12 14 12 -10 8 -22 -4 -26 -2 -21 11 9 23 2 20 -29 -12z"/> <path d="M3466 3415 c-3 -8 -2 -25 3 -37 7 -21 8 -20 13 10 5 34 -6 53 -16 27z"/> <path d="M2787 3400 c-3 -11 0 -23 5 -27 7 -3 8 -1 4 5 -9 15 6 15 37 1 14 -6 30 -22 36 -35 6 -13 16 -24 22 -24 8 0 8 4 -1 15 -10 12 -10 15 1 15 14 0 1 10 -62 48 -36 22 -37 22 -42 2z"/> <path d="M3410 3399 c-12 -8 -11 -9 5 -7 14 2 20 -2 19 -14 -1 -10 3 -18 8 -18 12 0 6 42 -7 47 -5 1 -17 -2 -25 -8z"/> <path d="M1938 3381 c-9 -15 -16 -17 -30 -10 -14 7 -16 6 -12 -6 3 -8 10 -12 15 -9 5 3 9 -1 9 -8 0 -10 2 -10 9 1 5 8 16 11 24 8 9 -3 14 0 13 11 0 9 8 18 19 20 16 2 17 1 5 -7 -12 -8 -10 -10 8 -8 33 2 21 21 -16 25 -22 2 -35 -2 -44 -17z"/> <path d="M2941 3387 c-1 -10 10 -22 25 -27 34 -13 39 -13 24 5 -7 8 -18 15 -25 15 -8 0 -16 6 -18 13 -3 7 -6 5 -6 -6z"/> <path d="M3350 3380 c-21 -7 -21 -8 -5 -9 11 0 27 4 35 9 18 11 5 11 -30 0z"/> <path d="M3380 3358 c0 -9 -3 -24 -7 -34 -4 -11 -3 -15 4 -11 6 4 13 4 16 0 2 -5 2 -3 1 4 -2 6 2 13 7 15 5 2 3 12 -5 23 -13 17 -15 18 -16 3z"/> <path d="M2090 3335 c6 -7 7 -15 2 -19 -4 -4 11 -6 33 -4 53 4 51 22 -2 29 -31 4 -40 2 -33 -6z"/> <path d="M3420 3311 c-11 -27 -10 -33 9 -57 12 -15 21 -21 21 -14 0 8 -7 21 -16 31 -12 14 -13 22 -4 39 6 12 10 24 7 26 -2 3 -10 -9 -17 -25z"/> <path d="M3293 3317 c3 -9 1 -18 -6 -20 -19 -7 3 -24 42 -32 30 -6 32 -5 20 8 -8 8 -20 12 -26 10 -8 -3 -13 3 -13 15 0 12 -5 24 -12 28 -7 5 -9 2 -5 -9z"/> <path d="M2187 3290 c-4 -17 -8 -18 -51 -5 -26 8 -44 10 -41 5 4 -6 -1 -10 -10 -10 -9 0 -14 4 -11 8 2 4 -4 8 -15 8 -19 0 -20 -1 -2 -14 10 -7 28 -11 40 -9 29 5 53 -20 32 -34 -12 -7 -11 -9 3 -9 9 0 19 4 23 10 3 5 13 6 22 3 11 -4 14 -3 9 6 -10 16 22 40 46 33 10 -2 18 1 18 7 0 6 -3 10 -7 10 -5 -1 -10 0 -13 1 -24 9 -39 5 -43 -10z"/> <path d="M3446 3296 c6 -16 34 -30 34 -18 0 5 -5 13 -12 20 -16 16 -29 15 -22 -2z"/> <path d="M2956 3289 c3 -5 10 -9 16 -9 11 0 36 -19 94 -69 41 -37 41 -52 0 -20 -44 35 -39 17 10 -33 27 -28 51 -45 60 -41 11 4 8 10 -11 25 -14 11 -23 24 -19 29 7 11 -65 94 -82 94 -6 0 -19 7 -29 15 -19 16 -48 23 -39 9z"/> <path d="M2223 3256 c-8 -10 -9 -16 0 -25 15 -15 30 -14 21 1 -5 8 7 10 44 5 40 -5 50 -3 46 7 -3 9 -18 13 -40 11 -18 -2 -36 1 -39 6 -8 12 -18 11 -32 -5z"/> <path d="M3337 3231 c21 -22 31 -26 41 -18 11 8 6 14 -20 28 -47 26 -53 23 -21 -10z"/> <path d="M2480 3225 c0 -7 43 -23 78 -30 21 -4 18 -1 -13 15 -39 19 -65 25 -65 15z"/> <path d="M3511 3190 c-9 -5 -4 -9 13 -12 14 -3 26 -2 26 2 0 12 -26 19 -39 10z"/> <path d="M2636 3165 c10 -8 24 -14 29 -14 6 0 1 6 -9 14 -11 8 -24 15 -30 15 -5 0 -1 -7 10 -15z"/> <path d="M3557 3133 c5 -12 3 -14 -8 -8 -8 4 -11 4 -6 0 4 -5 17 -10 28 -12 17 -3 18 0 9 17 -13 24 -32 27 -23 3z"/> <path d="M2912 3110 c22 -31 38 -38 38 -19 0 5 -4 8 -9 4 -5 -3 -12 3 -16 14 -3 11 -12 22 -20 25 -10 4 -8 -4 7 -24z"/> <path d="M3062 3123 c-10 -4 -10 -8 -2 -18 14 -17 41 -8 33 11 -5 15 -10 16 -31 7z"/> <path d="M3630 3122 c0 -5 7 -15 15 -22 8 -7 15 -8 15 -2 0 5 -7 15 -15 22 -8 7 -15 8 -15 2z"/> <path d="M3578 3078 c-7 -16 18 -35 30 -23 3 3 0 5 -6 5 -6 0 -12 8 -14 18 -3 15 -4 16 -10 0z"/> <path d="M1457 3021 c3 -12 11 -17 19 -14 18 7 18 10 -5 22 -16 9 -18 8 -14 -8z"/> <path d="M2395 3030 c3 -5 16 -10 28 -9 21 0 21 1 2 9 -28 12 -37 12 -30 0z"/> <path d="M1420 3006 c-7 -14 -19 -26 -27 -26 -7 0 -13 -11 -13 -24 0 -16 -12 -31 -35 -47 -35 -24 -44 -43 -25 -54 6 -3 7 -17 4 -30 -4 -17 0 -26 14 -34 27 -15 39 -14 24 1 -19 19 -14 33 6 15 10 -10 26 -17 36 -17 10 0 14 -5 11 -11 -4 -6 -13 -8 -21 -5 -8 3 -14 -1 -14 -9 0 -17 -22 -24 -77 -23 -46 1 -54 12 -25 34 15 12 15 13 1 14 -27 0 -45 -28 -31 -50 9 -14 8 -21 -3 -30 -8 -6 -11 -18 -8 -26 9 -23 23 -16 30 16 7 36 14 37 32 9 10 -17 10 -23 1 -29 -13 -8 -5 -30 11 -30 5 0 14 12 20 27 6 16 13 23 17 17 15 -23 45 -32 59 -18 13 12 77 13 89 1 3 -3 12 -3 20 0 8 3 14 0 14 -7 0 -6 5 -8 10 -5 6 3 10 1 10 -6 0 -9 3 -10 11 -2 13 13 56 -6 84 -37 11 -12 26 -18 35 -15 11 3 20 -1 24 -10 3 -9 14 -15 23 -13 10 1 23 -1 30 -5 6 -4 14 -3 18 3 11 18 27 11 20 -10 -6 -19 9 -28 19 -12 11 19 -23 49 -53 47 -17 -1 -31 2 -31 7 0 4 -4 7 -9 6 -5 -2 -17 6 -25 17 -10 13 -15 15 -16 7 0 -9 -11 -5 -31 12 -17 14 -35 26 -40 26 -6 0 -8 4 -5 8 3 5 -9 7 -27 4 -24 -3 -28 -1 -17 7 11 8 7 9 -20 6 -20 -2 -37 1 -42 8 -6 9 -8 9 -8 0 0 -7 -4 -13 -10 -13 -5 0 -7 7 -4 15 8 20 -6 19 -20 -1 -8 -10 -18 -13 -31 -8 -18 7 -18 8 1 15 17 7 17 8 2 8 -20 1 -24 21 -8 37 14 14 2 44 -17 44 -10 0 -13 8 -9 30 2 17 0 28 -5 24 -5 -3 -9 -1 -9 5 0 5 6 12 13 14 12 5 7 7 -20 7 -13 0 -9 -24 6 -36 10 -8 11 -13 3 -18 -6 -3 -16 3 -22 14 -6 11 -15 18 -21 15 -17 -11 -4 19 16 36 15 13 23 15 35 6 8 -6 12 -7 7 -2 -4 4 3 20 15 33 13 14 17 22 9 17 -9 -5 -12 -3 -9 6 3 8 13 13 22 13 17 -2 19 9 7 39 -6 17 -8 16 -21 -7z m-23 -286 c-4 -28 -14 -35 -32 -20 -8 7 -22 10 -30 6 -9 -3 -13 -2 -10 4 3 6 19 10 36 10 16 0 29 5 29 10 0 6 2 10 5 10 3 0 4 -9 2 -20z"/> <path d="M3607 2972 c1 -8 3 -19 3 -25 0 -7 4 -6 10 3 5 8 10 22 10 30 0 12 -2 13 -9 1 -5 -7 -11 -9 -13 -5 -3 5 -3 3 -1 -4z"/> <path d="M3157 2915 c11 -16 36 -61 56 -100 19 -38 43 -79 53 -90 11 -12 16 -16 13 -10 -4 5 -28 51 -53 101 -26 51 -57 100 -68 110 l-22 19 21 -30z"/> <path d="M2320 2827 c0 -15 4 -27 10 -27 5 0 9 9 7 20 -5 31 -17 36 -17 7z"/> <path d="M1920 2805 c0 -8 7 -15 16 -15 14 0 14 3 4 15 -7 8 -14 15 -16 15 -2 0 -4 -7 -4 -15z"/> <path d="M3250 2805 c0 -5 10 -21 21 -35 13 -17 17 -18 10 -5 -17 33 -31 51 -31 40z"/> <path d="M1914 2677 c3 -10 6 -23 6 -28 0 -5 5 -9 10 -9 14 0 12 13 -6 36 -14 17 -15 17 -10 1z"/> <path d="M1397 2600 c-10 -7 -29 -9 -42 -6 -45 12 -188 -87 -201 -139 -4 -17 -11 -24 -20 -21 -8 3 -14 1 -14 -4 0 -6 7 -10 15 -10 9 0 15 -9 15 -21 0 -14 -5 -19 -14 -16 -10 4 -12 0 -9 -14 5 -18 6 -18 18 -3 6 10 17 14 23 10 7 -4 12 -2 12 4 0 6 6 10 13 9 26 -3 37 2 37 16 0 20 10 19 26 -2 12 -17 13 -16 14 7 0 22 8 27 58 42 31 10 66 19 77 21 19 4 19 4 2 12 -11 4 -28 3 -41 -5 -13 -6 -40 -12 -60 -13 -20 0 -36 -4 -36 -9 0 -4 -12 -14 -27 -22 -25 -13 -28 -12 -40 12 -11 21 -11 27 -1 33 8 5 14 3 16 -6 2 -8 10 -15 18 -15 10 0 13 6 10 18 -9 27 50 78 70 61 12 -10 13 -9 8 5 -5 12 0 16 20 16 14 0 26 -4 26 -10 0 -5 -5 -10 -11 -10 -5 0 -7 -5 -4 -10 5 -8 12 -7 22 2 9 7 21 13 27 14 6 0 19 2 29 2 9 1 17 9 17 17 0 18 12 19 27 4 8 -8 13 -8 17 0 11 18 26 13 26 -9 0 -11 5 -20 10 -20 6 0 10 4 10 10 0 11 72 6 150 -10 30 -7 61 -12 67 -13 9 0 10 -4 2 -14 -6 -7 -8 -14 -3 -14 17 -3 39 -6 58 -8 11 0 16 -6 13 -14 -4 -10 3 -13 24 -12 17 1 32 -2 35 -7 6 -10 24 -11 24 0 -1 4 -15 14 -33 23 -18 9 -50 25 -72 37 -67 36 -107 52 -127 52 -10 0 -32 7 -48 15 -19 10 -31 11 -35 4 -5 -7 -11 -7 -19 1 -19 15 -157 23 -179 10z"/> <path d="M1003 2583 c-21 -8 -15 -50 8 -56 16 -4 18 -3 9 8 -8 9 -7 14 5 19 8 3 15 1 15 -5 0 -6 4 -7 10 -4 6 4 5 13 -3 25 -12 20 -21 23 -44 13z"/> <path d="M2935 2576 c-18 -13 -18 -14 4 -21 18 -5 20 -9 10 -21 -13 -16 -49 -19 -49 -4 0 6 10 10 23 10 19 1 20 2 5 11 -19 10 -90 -3 -145 -27 -17 -8 -39 -14 -49 -14 -10 0 -46 -9 -80 -21 -46 -16 -65 -28 -74 -47 -11 -25 -11 -26 7 -10 10 9 32 20 48 24 17 4 33 12 37 17 3 6 18 12 33 14 l27 4 -26 -28 c-29 -31 -28 -40 4 -23 25 13 39 5 22 -12 -7 -7 -12 -20 -12 -29 0 -10 -6 -20 -12 -22 -38 -15 18 -4 68 14 32 11 79 26 104 33 25 8 38 15 30 18 -10 4 -4 8 15 13 17 5 46 15 65 23 19 9 43 14 54 13 10 -2 22 3 26 9 4 7 30 13 57 14 39 1 49 5 50 19 2 20 1 20 -30 6 -18 -8 -30 -8 -45 0 -11 6 -22 8 -24 3 -5 -11 -77 -42 -99 -42 -15 0 -20 5 -17 23 2 18 10 23 41 25 34 3 54 21 25 23 -7 0 -4 4 7 9 15 6 7 9 -31 9 -28 1 -58 -5 -69 -13z m-7 -72 c35 -10 21 -28 -29 -36 -24 -4 -45 -12 -47 -18 -6 -17 -79 -50 -96 -44 -21 8 -20 21 3 34 11 5 21 20 23 32 3 21 8 23 63 21 41 -1 54 1 40 7 -20 9 -20 9 0 9 11 0 30 -2 43 -5z"/> <path d="M930 2565 c0 -6 4 -15 9 -20 5 -6 11 -19 14 -30 4 -18 5 -18 6 3 0 12 6 22 11 22 6 0 10 8 10 18 -1 16 -2 16 -14 -1 -14 -18 -15 -18 -25 0 -6 10 -11 13 -11 8z"/> <path d="M3190 2560 c0 -5 6 -10 14 -10 8 0 23 -3 33 -6 10 -3 7 2 -7 10 -30 18 -40 20 -40 6z"/> <path d="M3202 2530 c2 -8 7 -18 12 -21 13 -10 -4 -31 -21 -25 -8 3 -11 1 -8 -4 9 -15 32 -12 50 6 12 13 19 14 28 5 6 -6 16 -11 22 -11 5 1 -1 9 -14 20 -12 11 -27 17 -33 14 -5 -3 -16 2 -24 12 -10 14 -14 15 -12 4z"/> <path d="M2080 2515 c0 -8 5 -15 10 -15 6 0 10 7 10 15 0 8 -4 15 -10 15 -5 0 -10 -7 -10 -15z"/> <path d="M1448 2513 c-28 -4 -36 -17 -18 -28 6 -3 10 -1 10 4 0 15 28 14 33 -1 2 -7 3 -5 2 4 -2 9 2 19 9 22 13 5 3 5 -36 -1z"/> <path d="M1560 2511 c0 -6 -17 -11 -37 -12 -31 0 -34 -2 -18 -9 17 -7 17 -9 3 -9 -10 -1 -18 -8 -18 -16 0 -16 -62 -36 -130 -40 -62 -4 -60 -3 -60 -20 0 -12 4 -13 19 -5 11 5 49 10 85 10 37 0 66 4 66 10 0 13 85 12 135 -1 22 -7 58 -13 80 -14 38 -2 67 -12 177 -56 56 -23 58 -23 58 -3 0 8 -4 12 -10 9 -5 -3 -10 -1 -10 6 0 6 -8 9 -20 6 -10 -3 -24 1 -31 9 -6 8 -15 12 -19 9 -4 -2 -16 2 -26 10 -12 9 -14 14 -6 15 7 0 10 5 6 11 -4 8 -9 7 -15 -2 -6 -11 -12 -10 -28 5 -14 13 -39 19 -83 21 -35 2 -75 8 -90 13 -19 8 -28 8 -30 0 -3 -7 -12 -9 -22 -5 -14 6 -15 9 -4 21 7 7 23 13 36 11 16 -2 22 2 20 13 -3 18 -28 29 -28 13z"/> <path d="M1627 2508 c-16 -12 -15 -13 8 -14 15 -1 25 3 25 12 0 17 -11 18 -33 2z"/> <path d="M1703 2510 c-13 -5 -23 -14 -23 -20 0 -16 15 -12 40 10 25 21 19 24 -17 10z"/> <path d="M1730 2475 c-7 -9 -10 -18 -6 -22 3 -3 6 -1 6 5 0 6 7 9 15 6 8 -4 15 -1 15 4 0 19 -17 22 -30 7z"/> <path d="M1981 2440 c6 -16 15 -27 20 -24 13 8 11 23 -5 40 -22 21 -26 17 -15 -16z"/> <path d="M2506 2425 c-33 -30 -43 -45 -31 -45 9 0 19 8 22 18 2 9 18 24 36 32 17 8 33 21 35 28 7 23 -15 12 -62 -33z"/> <path d="M3230 2464 c0 -7 27 -34 35 -34 3 0 3 5 0 10 -3 6 0 10 7 10 9 0 9 3 -2 10 -17 11 -40 13 -40 4z"/> <path d="M1920 2449 c0 -7 -11 -8 -29 -4 -18 4 -32 2 -37 -6 -4 -8 -3 -10 4 -5 13 8 82 -19 82 -32 0 -10 -30 -9 -48 2 -6 4 -12 3 -12 -2 0 -5 13 -15 30 -22 16 -7 28 -17 27 -24 -1 -6 11 -11 28 -11 35 1 48 31 18 42 -23 8 -53 33 -53 45 0 4 10 8 23 8 18 0 19 2 7 10 -20 13 -40 13 -40 -1z"/> <path d="M3004 2438 c-3 -4 8 -8 25 -8 16 0 32 4 36 9 3 5 -8 9 -25 9 -17 -1 -33 -5 -36 -10z"/> <path d="M3176 2440 c-19 -6 -19 -7 -1 -13 20 -8 29 -4 24 11 -2 5 -13 6 -23 2z"/> <path d="M3793 2422 c9 -10 23 -33 31 -52 10 -22 15 -28 16 -16 0 23 -38 86 -52 86 -6 0 -4 -8 5 -18z"/> <path d="M2624 2415 c-4 -8 -10 -15 -16 -15 -5 0 -6 5 -3 10 3 6 2 10 -4 10 -5 0 -14 -6 -18 -13 -4 -8 -16 -16 -25 -20 -22 -8 -23 -33 -2 -41 12 -4 14 -1 9 13 -5 16 -2 18 16 14 15 -4 20 -3 15 5 -4 7 -1 12 9 12 9 0 25 9 37 20 19 17 19 20 5 20 -10 0 -20 -7 -23 -15z"/> <path d="M2676 2405 c-13 -10 -16 -19 -10 -24 5 -6 16 -4 28 5 11 8 14 14 7 14 -7 0 -9 5 -6 10 8 13 4 12 -19 -5z"/> <path d="M1270 2370 c0 -5 11 -9 24 -8 14 1 22 6 20 10 -7 12 -44 10 -44 -2z"/> <path d="M2687 2331 c-27 -9 -53 -24 -58 -34 -6 -10 -14 -15 -20 -12 -5 4 -9 1 -9 -4 0 -6 -8 -11 -18 -11 -20 0 -59 -36 -50 -46 7 -6 119 65 131 83 4 7 14 13 21 13 8 0 29 7 47 15 46 20 15 17 -44 -4z"/> <path d="M2817 2324 c-22 -12 -31 -13 -43 -3 -11 9 -14 8 -14 -10 0 -15 -7 -21 -25 -22 -14 -1 -31 -2 -37 -3 -7 -1 -22 -13 -33 -27 -11 -14 -26 -24 -32 -22 -17 6 -90 -47 -102 -74 -6 -13 -15 -23 -20 -23 -5 0 -11 -11 -13 -25 -3 -13 -2 -22 3 -20 4 3 10 1 13 -4 4 -5 1 -11 -6 -14 -8 -2 -7 -3 2 -3 9 1 14 10 13 24 -2 14 3 22 13 22 25 0 94 53 89 69 -3 8 0 11 10 8 8 -4 17 -2 20 4 4 5 11 7 16 4 5 -4 12 1 15 10 5 12 10 13 20 5 19 -17 60 6 44 25 -15 18 17 36 48 28 14 -3 22 -1 22 7 0 7 6 10 14 7 8 -3 16 -1 18 5 2 5 19 12 38 13 19 2 29 1 23 -2 -7 -2 -13 -9 -13 -14 0 -15 26 -10 40 7 10 11 23 14 51 9 22 -4 40 -2 43 4 4 6 20 8 38 4 24 -5 30 -3 26 8 -7 22 -243 24 -281 3z"/> <path d="M3733 2326 c4 -10 7 -20 7 -23 0 -3 6 0 14 6 22 18 38 -19 31 -71 -10 -69 -27 -130 -35 -121 -5 4 -11 31 -15 59 -5 40 -3 55 10 68 9 9 13 16 8 16 -4 0 -1 5 7 11 12 8 11 10 -5 7 -11 -2 -20 -8 -20 -13 0 -19 -16 -35 -36 -35 -10 0 -19 5 -19 11 0 5 -4 7 -10 4 -5 -3 -9 -20 -7 -38 2 -33 -17 -45 -51 -32 -9 3 -19 6 -21 5 -2 -1 -7 4 -12 11 -6 11 -12 11 -32 0 -36 -19 -25 -51 17 -50 28 0 29 1 9 9 -13 5 -23 16 -23 25 0 17 16 21 22 4 2 -5 22 -13 46 -16 46 -6 72 7 72 38 0 11 6 19 14 19 9 0 17 -24 26 -72 6 -40 16 -82 20 -93 7 -17 9 -15 9 12 1 17 6 35 11 38 6 3 10 14 10 24 0 10 7 32 15 47 18 35 20 128 2 142 -6 6 -25 14 -41 18 -25 6 -28 5 -23 -10z"/> <path d="M1724 2298 c-3 -4 8 -10 23 -13 15 -3 51 -15 78 -26 28 -10 56 -19 62 -19 7 0 28 -13 46 -30 19 -16 42 -30 50 -30 9 0 21 -9 27 -20 8 -14 17 -19 30 -15 13 4 22 -1 30 -15 6 -12 14 -19 17 -17 11 11 -28 67 -47 67 -18 0 -25 11 -21 34 1 5 -5 4 -13 -3 -13 -11 -22 -9 -53 10 -21 13 -42 29 -46 36 -5 9 -16 11 -29 7 -13 -4 -18 -2 -14 4 6 10 -47 28 -71 23 -7 -1 -13 3 -13 8 0 12 -49 11 -56 -1z"/> <path d="M2957 2269 c-12 -7 -15 -17 -11 -36 5 -19 3 -24 -7 -21 -8 3 -13 12 -11 22 2 10 -4 16 -17 16 -11 0 -21 6 -24 13 -9 26 -16 -1 -8 -31 7 -22 6 -31 -2 -29 -6 1 -11 -6 -12 -15 0 -9 -9 -24 -20 -32 -20 -14 -20 -15 3 -38 22 -25 28 -39 15 -37 -24 4 -65 -2 -59 -8 11 -11 96 -12 96 -2 0 5 16 2 36 -6 32 -13 35 -13 30 0 -3 10 1 15 14 15 10 0 22 5 25 10 3 6 1 10 -6 10 -7 0 -9 9 -6 22 4 12 1 28 -5 35 -8 10 -6 13 8 13 18 0 18 1 0 18 -13 12 -20 14 -23 5 -3 -7 -9 -13 -14 -13 -16 0 -10 25 11 48 20 21 27 52 13 52 -5 0 -16 -5 -26 -11z m17 -135 c9 -22 -4 -34 -40 -38 -43 -5 -67 10 -58 37 11 36 34 47 65 31 15 -7 30 -21 33 -30z"/> <path d="M1450 2262 c0 -17 32 -23 65 -13 l30 10 -30 -1 c-16 0 -38 3 -47 7 -11 4 -18 3 -18 -3z"/> <path d="M1610 2255 c-7 -9 -20 -13 -28 -10 -8 3 -20 1 -26 -4 -6 -5 -37 -16 -68 -25 -31 -9 -60 -21 -63 -26 -3 -6 -13 -10 -20 -10 -16 0 -122 -78 -145 -105 -8 -10 -24 -21 -37 -26 -42 -16 -25 -30 35 -27 44 1 67 -4 102 -23 24 -13 50 -30 56 -38 9 -11 17 -12 44 -3 19 7 38 8 44 3 14 -10 58 -21 110 -25 24 -2 45 -11 53 -22 14 -18 16 -17 45 15 21 23 32 30 38 22 8 -14 81 -11 91 3 8 11 108 45 134 46 11 0 43 -6 73 -12 43 -10 52 -16 48 -30 -2 -11 1 -18 10 -18 8 0 11 6 7 16 -4 11 0 15 13 14 32 -4 48 0 69 16 19 14 18 16 -25 54 -25 21 -51 39 -57 40 -7 0 -13 5 -13 11 0 6 -9 8 -20 4 -11 -4 -20 -2 -20 4 0 6 -12 11 -26 11 -16 0 -24 -5 -22 -12 7 -20 -23 -44 -79 -63 -29 -11 -53 -23 -53 -29 0 -6 -5 -5 -12 2 -8 8 -8 15 1 26 17 20 27 126 12 126 -6 0 -11 5 -11 12 0 9 3 9 12 0 7 -7 20 -12 30 -12 10 0 18 -4 18 -10 0 -5 9 -10 20 -10 13 0 18 5 14 15 -4 8 -12 15 -19 15 -6 0 -20 9 -30 20 -10 11 -27 20 -37 20 -11 0 -47 11 -81 24 -84 33 -169 42 -187 21z m33 -32 c-6 -15 -4 -16 8 -6 30 24 129 17 113 -8 -3 -5 -11 -6 -17 -2 -6 4 -22 8 -36 9 l-25 3 28 -23 c26 -20 28 -24 16 -47 -17 -31 -30 -39 -57 -34 -16 2 -20 -1 -16 -11 4 -10 -2 -14 -21 -14 -20 0 -26 -5 -26 -21 0 -18 3 -19 15 -9 8 6 31 12 52 13 21 0 51 9 66 20 l29 20 26 -26 26 -26 -28 -11 c-19 -7 -26 -15 -22 -25 4 -12 1 -13 -17 -3 -49 25 -57 27 -90 21 -27 -4 -34 -9 -30 -23 4 -15 -2 -18 -31 -18 -24 0 -36 5 -36 14 0 8 -7 14 -16 14 -10 0 -14 6 -10 15 3 8 0 15 -6 15 -6 0 -8 3 -5 7 4 3 2 12 -4 20 -9 10 -8 13 5 13 25 0 19 30 -11 56 -29 25 -29 24 20 28 6 1 15 9 19 19 4 10 18 17 33 17 14 0 25 5 25 10 0 6 7 10 15 10 10 0 12 -6 8 -17z m177 -57 c7 -17 9 -18 9 -3 1 9 5 17 10 17 4 0 8 -22 7 -50 -1 -53 -17 -66 -36 -30 -6 11 -20 20 -31 20 -15 0 -19 5 -15 15 3 9 -1 15 -11 15 -13 0 -13 3 -3 15 7 8 9 15 4 16 -5 0 0 4 11 8 26 11 45 3 55 -23z m-330 9 c0 -11 -59 -34 -65 -25 -3 6 3 10 14 10 11 0 23 5 26 10 6 10 25 14 25 5z m11 -39 c-8 -10 -7 -24 4 -56 11 -31 12 -46 4 -56 -15 -18 -59 3 -59 28 0 10 -7 18 -16 18 -8 0 -12 -4 -9 -10 3 -5 1 -10 -4 -10 -6 0 -11 9 -11 20 0 21 -15 27 -25 10 -3 -5 -13 -6 -23 -3 -16 6 -16 6 0 -10 9 -9 21 -17 26 -17 6 0 8 -9 5 -21 -5 -20 -7 -19 -33 6 -16 15 -32 26 -36 25 -5 -1 -10 3 -12 9 -2 6 10 14 27 17 17 4 34 11 37 15 3 5 9 7 14 4 4 -3 21 2 36 10 16 8 37 15 47 15 9 0 17 5 17 10 0 6 5 10 11 10 8 0 8 -4 0 -14z m625 -101 c-3 -8 0 -16 7 -19 7 -2 2 -5 -10 -5 -13 -1 -22 2 -22 7 3 19 -2 23 -16 12 -10 -9 -15 -9 -15 -1 0 6 5 11 10 11 6 0 10 7 10 15 0 13 4 14 21 5 11 -7 18 -18 15 -25z m-76 10 c0 -8 -6 -15 -13 -15 -8 0 -14 7 -14 15 0 8 6 15 14 15 7 0 13 -7 13 -15z m-609 -35 l24 -19 -30 2 c-22 1 -31 7 -31 20 0 22 8 22 37 -3z m250 5 c0 -5 -9 -11 -21 -13 -20 -3 -27 8 -13 22 10 9 34 3 34 -9z m-145 -34 c-11 -18 -35 -13 -31 7 2 9 4 21 4 27 1 5 8 2 17 -7 9 -9 13 -21 10 -27z m264 -6 c0 -9 -9 -15 -25 -15 -29 0 -34 16 -7 23 30 8 32 7 32 -8z m-103 -22 c6 -16 -28 -25 -43 -12 -8 6 -14 15 -14 20 0 11 53 4 57 -8z"/> <path d="M1600 2195 c0 -8 9 -15 20 -15 11 0 20 2 20 5 0 2 -9 9 -20 15 -16 9 -20 8 -20 -5z"/> <path d="M1567 2173 c-11 -11 -8 -20 8 -20 8 0 15 6 15 14 0 14 -12 17 -23 6z"/> <path d="M1574 2129 c-3 -6 0 -15 7 -20 8 -5 15 -4 17 2 3 6 10 5 20 -3 12 -9 11 -6 -2 10 -21 25 -32 27 -42 11z"/> <path d="M3028 2252 c-37 -4 -40 -42 -4 -42 14 0 28 5 31 10 12 19 78 -1 104 -32 14 -15 30 -28 35 -28 6 0 27 -12 47 -26 27 -18 35 -30 32 -45 -7 -25 12 -25 34 1 24 28 37 25 50 -10 6 -16 18 -30 27 -30 19 0 21 11 5 27 -12 12 4 53 21 53 6 0 10 7 10 16 0 12 -5 14 -17 9 -39 -16 -63 -17 -69 -2 -6 17 -32 29 -119 53 -33 9 -64 23 -70 30 -11 13 -71 21 -117 16z"/> <path d="M3831 2226 c0 -10 -17 -73 -36 -140 -19 -66 -44 -159 -55 -204 -37 -149 -133 -298 -207 -322 -21 -7 -59 -23 -85 -36 -51 -26 -50 -24 -64 -184 -18 -226 -136 -519 -271 -674 -43 -51 -51 -75 -12 -40 38 34 136 179 168 248 72 155 108 290 136 500 8 61 20 115 27 121 7 6 44 24 81 40 46 19 77 39 95 62 15 19 35 44 45 56 40 47 88 170 128 323 58 225 60 235 56 253 -4 12 -5 12 -6 -3z"/> <path d="M2247 2217 c-3 -9 -4 -39 -1 -69 2 -32 0 -48 -5 -39 -13 20 -23 -3 -15 -34 14 -56 27 -25 37 87 5 48 -5 82 -16 55z"/> <path d="M2774 2218 c-4 -6 1 -17 10 -24 11 -8 13 -14 7 -19 -6 -3 -11 -3 -11 1 0 3 -7 0 -16 -7 -13 -11 -15 -27 -11 -82 2 -37 7 -70 10 -73 3 -3 15 0 26 8 19 14 19 14 1 26 -23 14 -17 39 11 47 11 4 19 15 19 28 0 20 0 20 -15 1 -13 -17 -14 -17 -15 -1 0 9 -4 17 -10 17 -5 0 -10 8 -9 18 0 11 2 12 6 4 4 -10 8 -10 19 -1 8 6 14 9 14 5 0 -3 9 2 20 11 11 10 20 27 20 38 -1 17 -3 16 -16 -8 -16 -30 -34 -28 -34 4 0 21 -15 26 -26 7z"/> <path d="M3070 2210 c-8 -5 -11 -12 -7 -16 4 -4 13 -2 19 4 15 15 7 24 -12 12z"/> <path d="M1022 2158 c-7 -29 -17 -54 -22 -56 -6 -2 -10 -10 -10 -18 0 -9 -3 -13 -7 -11 -15 8 -38 -29 -38 -61 0 -17 3 -32 7 -32 5 0 8 -7 8 -16 0 -8 5 -12 10 -9 15 10 12 -5 -5 -22 -19 -18 -16 -44 4 -51 10 -3 12 0 8 12 -4 10 -1 16 7 16 18 0 16 62 -3 77 -11 8 -12 12 -3 13 6 0 12 7 12 16 0 10 -6 14 -15 10 -9 -3 -15 0 -15 10 0 10 8 14 23 13 31 -5 46 7 40 31 -4 13 0 20 10 20 10 0 17 15 21 45 9 59 9 60 -6 63 -8 2 -18 -17 -26 -50z"/> <path d="M2727 2182 c-10 -10 -14 -22 -10 -25 7 -8 43 21 43 35 0 14 -16 9 -33 -10z"/> <path d="M3100 2186 c0 -8 -11 -27 -25 -42 -31 -33 -33 -58 -5 -49 12 4 20 2 20 -5 0 -6 5 -8 12 -4 6 4 9 3 7 -2 -3 -5 -11 -22 -19 -39 -16 -31 -45 -65 -57 -65 -4 0 -2 5 5 12 26 26 10 27 -29 1 -43 -28 -58 -23 -59 21 0 25 -13 12 -16 -17 -1 -12 -3 -25 -3 -30 -1 -11 -51 3 -88 25 -23 13 -33 15 -39 7 -4 -6 1 -16 10 -21 9 -5 14 -14 10 -20 -4 -5 -9 -6 -13 -1 -7 10 -58 43 -66 43 -4 0 -3 -4 0 -10 10 -16 -12 -12 -29 6 -9 8 -16 23 -16 32 -1 16 -2 16 -14 0 -7 -10 -16 -18 -20 -18 -13 0 -5 82 10 106 25 38 6 43 -24 6 -16 -18 -36 -32 -49 -32 -31 0 -53 -10 -53 -25 0 -7 -9 -15 -20 -18 -23 -6 -27 -27 -6 -27 7 0 19 -6 25 -14 7 -9 28 -13 60 -11 27 2 54 -1 60 -4 17 -11 -61 -43 -106 -45 -33 -1 -38 2 -35 20 4 32 -29 41 -50 14 -13 -17 -15 -27 -8 -41 6 -10 14 -19 18 -20 4 0 27 -2 52 -4 61 -7 140 4 140 18 0 9 47 12 163 13 178 1 225 11 257 51 25 32 54 128 44 145 -5 7 -8 22 -9 33 0 23 -35 34 -35 11z m30 -56 c0 -12 -28 -25 -36 -17 -9 9 6 27 22 27 8 0 14 -5 14 -10z m-540 -92 c0 -13 -23 -5 -28 10 -2 7 2 10 12 6 9 -3 16 -11 16 -16z"/> <path d="M3017 2144 c-8 -8 3 -34 14 -34 5 0 9 9 9 20 0 19 -11 26 -23 14z"/> <path d="M3503 2129 c-2 -19 11 -26 21 -10 3 5 0 14 -7 19 -10 8 -13 6 -14 -9z"/> <path d="M793 2114 c-4 -10 0 -20 10 -26 10 -5 17 -14 17 -20 0 -7 10 -22 22 -35 20 -21 22 -33 20 -111 -1 -48 2 -93 7 -101 10 -16 31 -6 31 15 0 8 5 12 11 9 10 -7 38 21 39 38 0 4 -10 12 -22 18 -19 8 -23 18 -23 57 1 51 -28 106 -79 150 -23 20 -27 20 -33 6z"/> <path d="M3633 2113 c-13 -2 -23 -9 -23 -14 0 -14 30 -11 46 6 9 8 12 14 7 14 -4 -1 -18 -4 -30 -6z"/> <path d="M3551 2098 c-1 -10 -4 -18 -8 -18 -11 0 -15 -77 -5 -84 5 -3 6 8 4 25 -3 22 -1 29 9 27 8 -2 13 3 11 11 -1 7 3 20 10 29 8 10 9 13 1 9 -6 -4 -14 -1 -16 5 -3 8 -6 6 -6 -4z"/> <path d="M3020 2059 c0 -6 -9 -8 -22 -4 -22 7 -22 6 -6 -11 17 -17 18 -17 31 0 9 12 16 15 20 8 7 -10 47 -5 47 7 0 3 -16 7 -35 8 -20 2 -35 -2 -35 -8z"/> <path d="M2850 2032 c0 -7 4 -12 9 -12 5 0 11 -8 13 -17 2 -12 6 -14 10 -7 4 6 -1 19 -12 29 -12 10 -20 13 -20 7z"/> <path d="M2223 2004 c0 -35 -65 -93 -74 -67 -5 15 -10 13 -35 -12 -16 -16 -32 -29 -36 -27 -8 2 -12 -27 -9 -60 4 -30 -17 -20 -24 12 -4 17 -10 30 -15 30 -18 0 -38 -31 -35 -56 1 -16 -3 -28 -14 -31 -9 -3 -32 -18 -51 -32 -45 -33 -55 -34 -69 -4 -6 13 -16 21 -21 18 -6 -4 -8 -11 -5 -16 4 -5 2 -9 -4 -9 -5 0 -12 6 -14 13 -4 9 -8 8 -16 -3 -8 -11 -6 -17 9 -22 11 -4 20 -9 20 -11 0 -7 -55 5 -67 15 -18 14 2 48 27 48 28 0 25 20 -2 21 -13 0 -32 5 -43 10 -16 7 -12 8 18 6 32 -3 36 0 31 15 -3 11 0 18 8 18 9 0 14 13 15 35 1 19 -3 32 -8 29 -5 -3 -9 -10 -9 -15 0 -16 -24 -36 -38 -31 -6 2 -15 -5 -19 -15 -3 -10 -11 -21 -17 -26 -7 -5 -5 -12 8 -22 17 -13 17 -15 3 -21 -10 -3 -17 -10 -17 -16 0 -5 4 -7 8 -4 5 3 9 -2 9 -10 0 -9 -6 -13 -14 -10 -8 3 -11 1 -8 -4 3 -6 12 -10 20 -10 7 0 16 -7 19 -15 6 -16 59 -17 84 -1 7 4 12 3 12 -2 0 -10 27 -9 80 3 21 5 30 4 26 -3 -4 -6 2 -8 14 -5 19 5 19 6 3 18 -10 7 -22 11 -27 8 -5 -4 -6 -1 -2 5 4 7 17 12 29 12 32 0 49 14 41 33 -7 19 11 23 20 5 5 -10 7 -10 12 0 3 6 10 12 15 12 6 0 7 -6 4 -12 -4 -7 1 -4 9 6 9 11 19 17 23 13 3 -4 -2 -16 -12 -27 -10 -11 -13 -20 -7 -20 5 0 9 -8 7 -17 -2 -10 -4 -28 -4 -41 -1 -13 -5 -21 -10 -18 -5 4 -7 -3 -4 -13 3 -13 -2 -21 -16 -26 -11 -3 -23 -15 -26 -25 -3 -11 -9 -19 -13 -19 -15 2 -52 -14 -52 -23 0 -5 8 -4 19 2 13 7 22 7 26 0 3 -5 -1 -10 -9 -10 -22 0 -46 -28 -39 -46 4 -12 8 -13 13 -4 11 18 22 -22 13 -46 -6 -17 -5 -18 11 -4 16 12 19 12 27 -2 7 -13 15 -14 42 -6 29 9 33 14 29 37 -3 14 -1 23 3 19 5 -5 23 3 41 17 18 14 40 25 49 25 9 0 13 5 10 10 -3 6 1 13 9 16 9 3 16 17 16 29 0 17 7 25 23 28 19 4 18 4 -5 6 -24 1 -27 5 -25 29 2 15 9 36 16 47 11 19 12 18 8 -8 -3 -17 0 -26 6 -24 7 2 10 23 9 48 -2 24 -5 87 -7 139 -3 52 -5 103 -5 112 -2 29 -17 30 -17 2z m-48 -114 c-3 -4 2 -10 10 -14 8 -3 12 -12 9 -20 -3 -8 -1 -17 5 -21 6 -3 11 -11 11 -17 0 -6 -8 -4 -18 5 -25 23 -31 21 -26 -5 3 -14 0 -11 -7 7 -16 41 -16 41 -39 20 -13 -11 -20 -14 -20 -6 0 19 58 73 70 66 6 -4 8 -10 5 -15z m4 -93 c9 4 11 0 7 -13 -3 -11 -8 -41 -11 -69 -3 -27 -8 -58 -11 -67 -3 -12 0 -18 10 -18 22 0 20 -19 -1 -26 -46 -15 -81 -39 -107 -75 -30 -39 -46 -42 -46 -8 0 10 -7 19 -15 19 -21 0 -19 21 3 27 10 2 24 20 31 38 7 21 17 32 25 29 16 -6 46 21 46 42 0 8 9 14 20 14 11 0 20 5 20 11 0 6 -8 8 -19 4 -12 -3 -21 0 -25 10 -3 8 -1 15 5 15 7 0 8 14 4 40 -5 27 -3 40 5 40 6 0 8 6 4 13 -4 6 4 2 17 -9 13 -12 30 -19 38 -17z"/> <path d="M3687 1998 c-6 -18 19 -46 30 -34 4 4 3 10 -3 14 -6 4 -13 14 -16 21 -4 12 -5 12 -11 -1z"/> <path d="M3490 1965 c0 -19 4 -35 8 -35 4 0 6 16 4 35 -2 19 -6 35 -8 35 -2 0 -4 -16 -4 -35z"/> <path d="M800 1976 c0 -3 5 -17 11 -33 8 -22 12 -24 19 -13 13 21 13 24 -10 38 -11 7 -20 10 -20 8z"/> <path d="M929 1950 c0 -3 -2 -13 -4 -22 -4 -20 10 -24 21 -7 3 6 1 16 -5 22 -6 6 -11 9 -12 7z"/> <path d="M3642 1928 c6 -18 28 -21 28 -4 0 9 -7 16 -16 16 -9 0 -14 -5 -12 -12z"/> <path d="M3541 1923 c0 -6 -4 -20 -7 -30 -5 -14 -4 -15 5 -7 7 7 11 20 8 30 -3 11 -5 14 -6 7z"/> <path d="M2770 1900 c0 -5 4 -10 9 -10 5 0 17 -7 25 -16 9 -8 16 -11 16 -6 0 5 -11 17 -25 26 -14 9 -25 12 -25 6z"/> <path d="M3461 1873 c-6 -21 -14 -56 -17 -78 -10 -64 11 -29 26 43 14 70 8 95 -9 35z"/> <path d="M3622 1904 c7 -7 -39 -54 -54 -54 -7 0 -6 5 2 14 8 10 -1 9 -29 -5 -23 -11 -41 -22 -41 -24 0 -3 20 -5 45 -5 35 0 52 6 76 28 30 27 33 52 7 52 -6 0 -9 -3 -6 -6z"/> <path d="M1630 1783 c1 -27 70 -59 70 -33 0 7 -7 10 -15 6 -9 -3 -24 3 -35 14 -11 11 -20 17 -20 13z"/> <path d="M3630 1773 c-24 -9 -50 -35 -50 -50 0 -10 12 -6 40 14 49 35 54 52 10 36z"/> <path d="M1614 1733 c1 -24 4 -43 9 -43 4 0 7 6 8 13 0 6 4 3 9 -8 7 -17 9 -17 9 -2 1 9 5 17 11 17 5 0 7 -8 4 -17 -4 -11 -2 -14 3 -8 4 6 14 10 22 10 8 0 16 6 19 13 2 7 -2 13 -9 11 -8 -1 -27 -1 -44 0 -23 1 -27 3 -15 11 13 8 13 10 -2 10 -9 0 -18 8 -21 18 -2 9 -4 -2 -3 -25z"/> <path d="M2545 1643 c4 -21 15 -62 26 -91 23 -64 24 -100 3 -130 -8 -12 -11 -22 -5 -22 5 0 13 5 16 10 4 6 11 8 16 5 9 -6 12 16 10 70 -1 17 -12 59 -23 95 -15 47 -18 65 -9 68 8 3 6 9 -6 18 -29 21 -34 17 -28 -23z"/> <path d="M2255 1621 c3 -5 1 -12 -5 -16 -6 -4 -5 -11 4 -21 25 -24 35 -17 23 16 -6 17 -15 30 -20 30 -4 0 -6 -4 -2 -9z"/> <path d="M2285 1550 c-4 -6 -5 -12 -4 -13 2 -1 15 -8 27 -15 21 -12 23 -11 20 3 -1 9 -7 15 -12 15 -5 -1 -12 4 -16 10 -6 9 -9 9 -15 0z"/> <path d="M2386 1466 c-37 -36 -43 -46 -26 -46 6 0 10 6 10 14 0 8 9 18 20 21 11 3 20 10 20 15 0 4 9 6 20 3 16 -4 19 -2 14 11 -9 23 -17 20 -58 -18z"/> <path d="M2200 1461 c13 -10 13 -11 0 -11 -12 -1 -11 -3 3 -11 22 -13 22 -25 -3 -51 -11 -12 -20 -29 -20 -38 0 -9 -13 -29 -30 -43 -16 -15 -30 -36 -30 -46 0 -11 -6 -22 -12 -24 -9 -4 -10 -8 -2 -14 22 -17 24 -42 3 -48 -10 -4 -19 -13 -19 -21 0 -13 3 -13 22 0 14 10 27 12 38 6 20 -11 30 -4 29 19 0 12 -3 11 -9 -4 -8 -19 -9 -19 -9 3 -1 12 -5 22 -10 22 -13 0 13 83 28 88 6 2 9 7 6 12 -3 4 2 13 10 20 8 7 15 19 15 27 0 8 10 28 21 45 18 25 19 32 8 39 -8 4 -14 14 -14 21 0 7 -9 14 -20 16 -16 3 -17 1 -5 -7z"/> <path d="M2490 1447 c0 -7 -9 -18 -20 -24 -16 -11 -21 -10 -29 5 -9 16 -12 15 -32 -7 l-23 -24 22 5 c12 4 22 2 22 -3 0 -5 16 -2 36 6 28 11 40 12 50 4 11 -9 15 -7 21 6 4 12 0 23 -12 31 -23 17 -35 18 -35 1z"/> <path d="M1986 1419 c3 -26 2 -29 -11 -19 -12 10 -13 7 -5 -21 5 -17 7 -36 4 -41 -3 -5 2 -18 11 -28 16 -18 17 -20 1 -26 -11 -4 -15 -13 -10 -26 3 -11 2 -18 -3 -15 -12 8 -38 -15 -39 -35 -1 -10 2 -15 7 -12 5 3 9 -7 9 -21 0 -27 20 -55 40 -55 6 0 8 5 4 12 -4 7 -3 8 4 4 6 -4 8 -14 5 -23 -5 -12 -3 -14 7 -8 9 6 11 4 6 -4 -8 -12 19 -40 39 -40 6 0 2 4 -7 10 -24 13 -23 25 2 25 11 0 20 -4 20 -8 0 -14 21 -9 57 13 31 19 33 23 18 32 -14 7 -22 5 -34 -11 -19 -25 -66 -20 -82 9 -5 11 -19 19 -29 19 -31 0 -23 28 10 35 17 4 27 11 24 16 -3 6 -12 8 -19 5 -7 -2 -16 2 -19 10 -3 8 -2 13 3 10 5 -3 11 1 15 9 3 8 12 12 21 9 10 -4 15 0 15 15 0 21 -1 21 -31 6 -29 -16 -30 -16 -20 4 6 11 15 22 20 25 15 10 0 48 -16 41 -12 -4 -14 0 -8 22 9 37 9 37 44 19 32 -17 107 -21 129 -7 11 6 10 11 -3 25 -9 9 -21 16 -26 16 -20 0 -8 19 19 28 17 7 21 11 10 11 -25 1 -61 -37 -54 -56 5 -11 2 -13 -11 -8 -10 4 -25 9 -33 12 -13 4 -13 4 0 -6 26 -18 -7 -13 -46 8 -19 10 -29 21 -23 23 7 2 9 10 5 16 -13 22 -23 12 -20 -19z m-6 -199 c9 -16 8 -20 -5 -20 -8 0 -15 9 -15 20 0 11 2 20 5 20 2 0 9 -9 15 -20z"/> <path d="M2487 1378 c-15 -5 -24 -14 -21 -19 3 -6 -17 -32 -45 -58 -32 -30 -53 -60 -57 -79 -4 -18 -11 -29 -16 -26 -5 3 -15 1 -23 -6 -7 -6 -30 -12 -49 -13 -23 -1 -34 -6 -32 -14 5 -13 -15 -23 -47 -23 -17 0 -19 -2 -8 -9 18 -12 27 -10 84 18 35 17 57 21 82 17 40 -8 54 9 36 42 -12 23 -5 52 13 52 7 0 26 15 42 33 16 19 41 40 54 47 29 15 41 30 34 42 -6 10 -11 9 -47 -4z"/> <path d="M2570 1381 c0 -11 91 -91 103 -91 5 0 25 -16 45 -35 20 -19 45 -35 55 -35 27 0 31 -1 45 -12 6 -6 12 -7 12 -4 0 13 -28 36 -43 36 -14 0 -109 67 -115 82 -2 4 -8 8 -13 8 -17 0 -69 43 -63 52 3 4 -2 8 -10 8 -9 0 -16 -4 -16 -9z"/> <path d="M2340 1105 c-32 -18 -16 -19 35 0 32 11 35 14 15 14 -14 0 -36 -6 -50 -14z"/> <path d="M2460 1093 c-19 -2 -49 -10 -67 -18 -35 -17 -80 -19 -115 -6 -46 17 -78 21 -78 11 0 -5 7 -10 15 -10 9 0 18 -6 21 -14 3 -8 18 -14 34 -14 16 1 37 -5 47 -13 11 -9 14 -10 9 -2 -5 10 -1 11 19 3 33 -13 44 -13 25 0 -12 8 -11 10 8 10 12 0 33 6 45 14 12 7 35 17 51 20 23 6 27 4 23 -8 -7 -17 8 -22 18 -6 3 5 13 6 22 3 14 -6 14 -8 -3 -20 -10 -7 -26 -13 -37 -13 -10 0 -25 -7 -33 -15 -18 -17 -34 -20 -34 -5 0 6 5 10 10 10 6 0 10 5 10 10 0 18 -18 10 -25 -10 -4 -11 -10 -18 -15 -15 -5 3 -11 1 -15 -5 -7 -11 -68 -14 -79 -3 -4 4 -30 8 -59 8 -29 1 -86 5 -127 10 -62 7 -71 10 -52 18 12 6 22 14 22 18 0 5 18 12 40 15 22 4 43 11 47 17 7 12 -41 1 -74 -16 -98 -53 -167 -86 -192 -92 -16 -3 -32 -13 -35 -21 -3 -8 -12 -14 -21 -14 -8 0 -15 -5 -15 -11 0 -5 -3 -8 -7 -6 -10 6 -9 -43 1 -65 5 -10 14 -18 20 -18 7 0 22 -9 34 -20 12 -11 28 -20 37 -20 9 0 13 -4 10 -10 -4 -6 6 -10 22 -10 15 0 47 -11 70 -24 28 -17 43 -20 47 -13 3 9 5 9 5 0 1 -7 8 -10 18 -6 9 4 14 2 11 -3 -4 -5 10 -9 30 -10 21 0 78 -6 127 -13 104 -14 164 -8 257 26 67 25 149 85 136 98 -4 5 -14 2 -23 -5 -8 -7 -16 -10 -16 -6 -1 3 -3 9 -4 14 -2 4 -6 17 -10 30 -4 12 -11 22 -16 22 -5 0 -5 -8 -2 -17 6 -16 5 -17 -13 -3 -18 14 -18 14 -5 -2 7 -10 17 -16 21 -13 4 3 10 -10 12 -29 3 -29 0 -35 -27 -47 -16 -7 -36 -12 -42 -11 -7 2 -13 -1 -13 -7 0 -26 -198 -54 -225 -31 -8 7 -22 10 -30 6 -20 -7 -76 4 -70 14 3 5 -1 11 -7 13 -10 4 -10 6 0 6 7 1 11 5 8 10 -4 5 2 8 11 7 11 -2 27 10 41 31 13 19 28 31 34 27 6 -4 8 -3 4 4 -7 12 4 21 32 27 15 2 17 -3 14 -33 l-3 -37 15 27 c28 52 29 53 38 32 6 -14 7 -13 3 8 -4 21 0 28 16 33 27 9 36 -1 48 -50 5 -22 9 -30 10 -18 1 12 -4 34 -9 49 -6 15 -8 30 -4 33 4 3 9 0 11 -7 4 -10 8 -8 18 5 12 16 14 14 29 -22 9 -21 19 -49 22 -62 7 -28 28 -25 31 3 3 18 3 18 -5 0 -7 -15 -11 -10 -21 25 -7 24 -18 50 -23 57 -8 9 -4 12 15 12 14 0 29 -4 32 -10 3 -5 11 -10 16 -10 6 0 7 5 4 10 -3 6 -1 10 4 10 6 0 11 -5 11 -10 0 -7 6 -7 18 -1 13 7 23 6 30 -1 7 -7 12 -9 12 -5 0 4 10 2 23 -5 12 -7 50 -13 85 -14 60 -1 63 0 58 20 -3 12 -6 24 -6 29 0 4 -9 7 -21 7 -14 0 -19 5 -16 14 6 14 -31 36 -59 36 -9 0 -28 9 -43 19 -33 24 -127 66 -161 72 -14 3 -41 4 -60 2z m126 -55 c4 -6 3 -8 -4 -4 -6 3 -13 2 -17 -4 -3 -5 -14 -10 -23 -10 -15 0 -5 9 35 29 1 1 5 -4 9 -11z m-6 -48 c19 -6 64 -15 98 -20 35 -6 75 -18 90 -28 l25 -17 -33 -6 c-24 -5 -45 -2 -70 11 -25 13 -50 17 -90 14 -30 -2 -85 -5 -122 -7 -38 -1 -68 -5 -68 -8 0 -11 -53 -34 -72 -31 -25 4 -78 -20 -78 -35 0 -7 -9 -13 -19 -13 -11 0 -23 -9 -26 -20 -4 -12 -18 -23 -34 -26 -15 -3 -33 -14 -39 -25 -11 -17 -9 -19 13 -19 14 0 25 -4 25 -8 0 -21 -93 4 -178 47 -23 12 -50 21 -60 21 -11 0 -27 11 -36 25 -9 14 -23 25 -31 25 -25 0 -17 37 13 57 59 41 108 54 207 55 48 0 267 -20 272 -26 2 -2 32 7 66 19 72 26 99 29 147 15z"/> <path d="M2418 894 c-5 -4 -8 -19 -8 -33 0 -18 3 -22 11 -14 6 6 9 21 7 33 -1 12 -6 18 -10 14z"/> <path d="M2636 875 c-3 -9 1 -12 14 -10 11 2 22 -1 25 -6 8 -11 25 -2 25 13 0 6 -3 9 -6 5 -3 -3 -16 -2 -29 3 -17 6 -25 5 -29 -5z"/> <path d="M2493 818 c3 -9 1 -19 -6 -22 -7 -2 -4 -5 6 -5 20 -1 21 7 6 29 -9 13 -10 13 -6 -2z"/> <path d="M2465 625 c-29 -14 -35 -20 -22 -23 14 -3 10 -9 -18 -27 -19 -14 -42 -22 -50 -19 -9 4 -15 0 -15 -9 0 -8 -7 -18 -16 -21 -9 -4 -14 -10 -10 -13 4 -4 -4 -13 -16 -20 -17 -9 -19 -12 -7 -13 9 0 22 7 29 15 7 8 17 15 22 15 5 0 29 15 54 34 25 19 58 38 75 41 29 7 34 17 21 45 -6 13 -12 12 -47 -5z"/> </g> </svg> 